G04 Layer_Color=16711935*
%FSLAX25Y25*%
%MOIN*%
G70*
G01*
G75*
%ADD24C,0.00600*%
%ADD25C,0.00000*%
D24*
X222500Y-214200D02*
Y-209800D01*
X218300D02*
X222500D01*
X218300Y-214200D02*
Y-209800D01*
Y-214200D02*
X222500D01*
Y-224200D02*
Y-219800D01*
X218300D02*
X222500D01*
X218300Y-224200D02*
Y-219800D01*
Y-224200D02*
X222500D01*
Y-234200D02*
Y-229800D01*
X218300D02*
X222500D01*
X218300Y-234200D02*
Y-229800D01*
Y-234200D02*
X222500D01*
Y-244200D02*
Y-239800D01*
X218300D02*
X222500D01*
X218300Y-244200D02*
Y-239800D01*
Y-244200D02*
X222500D01*
X248500D02*
Y-239800D01*
Y-244200D02*
X252700D01*
Y-239800D01*
X248500D02*
X252700D01*
X248500Y-234200D02*
Y-229800D01*
Y-234200D02*
X252700D01*
Y-229800D01*
X248500D02*
X252700D01*
X248500Y-224200D02*
Y-219800D01*
Y-224200D02*
X252700D01*
Y-219800D01*
X248500D02*
X252700D01*
X248500Y-214200D02*
Y-209800D01*
Y-214200D02*
X252700D01*
Y-209800D01*
X248500D02*
X252700D01*
X222500Y-247000D02*
X248500D01*
Y-207000D01*
X236700D02*
X248500D01*
X234300D02*
X236700D01*
X222500D02*
X234300D01*
X222500Y-247000D02*
Y-207000D01*
X224500Y-135700D02*
Y-131300D01*
X220300D02*
X224500D01*
X220300Y-135700D02*
Y-131300D01*
Y-135700D02*
X224500D01*
Y-145700D02*
Y-141300D01*
X220300D02*
X224500D01*
X220300Y-145700D02*
Y-141300D01*
Y-145700D02*
X224500D01*
Y-155700D02*
Y-151300D01*
X220300D02*
X224500D01*
X220300Y-155700D02*
Y-151300D01*
Y-155700D02*
X224500D01*
Y-165700D02*
Y-161300D01*
X220300D02*
X224500D01*
X220300Y-165700D02*
Y-161300D01*
Y-165700D02*
X224500D01*
X250500D02*
Y-161300D01*
Y-165700D02*
X254700D01*
Y-161300D01*
X250500D02*
X254700D01*
X250500Y-155700D02*
Y-151300D01*
Y-155700D02*
X254700D01*
Y-151300D01*
X250500D02*
X254700D01*
X250500Y-145700D02*
Y-141300D01*
Y-145700D02*
X254700D01*
Y-141300D01*
X250500D02*
X254700D01*
X250500Y-135700D02*
Y-131300D01*
Y-135700D02*
X254700D01*
Y-131300D01*
X250500D02*
X254700D01*
X224500Y-168500D02*
X250500D01*
Y-128500D01*
X238700D02*
X250500D01*
X236300D02*
X238700D01*
X224500D02*
X236300D01*
X224500Y-168500D02*
Y-128500D01*
D25*
X139300Y-134000D02*
G03*
X141700Y-134000I1200J0D01*
G01*
X234300Y-207000D02*
G03*
X236700Y-207000I1200J0D01*
G01*
X236300Y-128500D02*
G03*
X238700Y-128500I1200J0D01*
G01*
X127500Y-144700D02*
Y-140300D01*
X123300D02*
X127500D01*
X123300Y-144700D02*
Y-140300D01*
Y-144700D02*
X127500D01*
Y-154700D02*
Y-150300D01*
X123300D02*
X127500D01*
X123300Y-154700D02*
Y-150300D01*
Y-154700D02*
X127500D01*
Y-164700D02*
Y-160300D01*
X123300D02*
X127500D01*
X123300Y-164700D02*
Y-160300D01*
Y-164700D02*
X127500D01*
Y-174700D02*
Y-170300D01*
X123300D02*
X127500D01*
X123300Y-174700D02*
Y-170300D01*
Y-174700D02*
X127500D01*
Y-184700D02*
Y-180300D01*
X123300D02*
X127500D01*
X123300Y-184700D02*
Y-180300D01*
Y-184700D02*
X127500D01*
Y-194700D02*
Y-190300D01*
X123300D02*
X127500D01*
X123300Y-194700D02*
Y-190300D01*
Y-194700D02*
X127500D01*
Y-204700D02*
Y-200300D01*
X123300D02*
X127500D01*
X123300Y-204700D02*
Y-200300D01*
Y-204700D02*
X127500D01*
X153500D02*
Y-200300D01*
Y-204700D02*
X157700D01*
Y-200300D01*
X153500D02*
X157700D01*
X153500Y-194700D02*
Y-190300D01*
Y-194700D02*
X157700D01*
Y-190300D01*
X153500D02*
X157700D01*
X153500Y-184700D02*
Y-180300D01*
Y-184700D02*
X157700D01*
Y-180300D01*
X153500D02*
X157700D01*
X153500Y-174700D02*
Y-170300D01*
Y-174700D02*
X157700D01*
Y-170300D01*
X153500D02*
X157700D01*
X153500Y-164700D02*
Y-160300D01*
Y-164700D02*
X157700D01*
Y-160300D01*
X153500D02*
X157700D01*
X153500Y-154700D02*
Y-150300D01*
Y-154700D02*
X157700D01*
Y-150300D01*
X153500D02*
X157700D01*
X153500Y-144700D02*
Y-140300D01*
Y-144700D02*
X157700D01*
Y-140300D01*
X153500D02*
X157700D01*
X127500Y-211000D02*
X153500D01*
Y-134000D01*
X141700D02*
X153500D01*
X139300D02*
X141700D01*
X127500D02*
X139300D01*
X127500Y-211000D02*
Y-134000D01*
M02*
