G04 Layer_Color=255*
%FSLAX25Y25*%
%MOIN*%
G70*
G01*
G75*
%ADD11C,0.07000*%
%ADD12C,0.06000*%
%ADD13C,0.09842*%
%ADD14C,0.05905*%
%ADD15R,0.06600X0.06600*%
%ADD16C,0.06600*%
%ADD17C,0.08000*%
%ADD18R,0.27559X0.27559*%
D11*
X99500Y-161000D02*
D03*
Y-201000D02*
D03*
Y-213000D02*
D03*
Y-253000D02*
D03*
X204500Y-327000D02*
D03*
Y-337000D02*
D03*
X66000Y-333500D02*
D03*
X56000D02*
D03*
X46000D02*
D03*
X35500Y-102000D02*
D03*
X75500D02*
D03*
X156500Y-328000D02*
D03*
Y-338000D02*
D03*
X35500Y-44000D02*
D03*
X75500D02*
D03*
Y-82667D02*
D03*
X35500D02*
D03*
X75500Y-63333D02*
D03*
X35500D02*
D03*
X63500Y-148000D02*
D03*
Y-158000D02*
D03*
D12*
X207000Y-168500D02*
D03*
Y-129000D02*
D03*
X84500Y-290500D02*
D03*
X44500D02*
D03*
X107000Y-337000D02*
D03*
Y-297000D02*
D03*
X240000Y-279500D02*
D03*
X200000D02*
D03*
X241000Y-101000D02*
D03*
X280000D02*
D03*
X196000Y-196000D02*
D03*
Y-235500D02*
D03*
D13*
X25500Y-239500D02*
D03*
Y-219815D02*
D03*
X341500Y-214685D02*
D03*
Y-195000D02*
D03*
X25500Y-142500D02*
D03*
Y-162185D02*
D03*
D14*
X69000Y-243870D02*
D03*
Y-204500D02*
D03*
X274000Y-168870D02*
D03*
Y-129500D02*
D03*
Y-244870D02*
D03*
Y-205500D02*
D03*
X121500Y-110000D02*
D03*
X160870D02*
D03*
X307630Y-142500D02*
D03*
X347000D02*
D03*
X259000Y-54347D02*
D03*
Y-76000D02*
D03*
X361500Y-54347D02*
D03*
Y-76000D02*
D03*
X114000Y-54347D02*
D03*
Y-76000D02*
D03*
X162000Y-54347D02*
D03*
Y-76000D02*
D03*
D15*
X125500Y-142500D02*
D03*
X220500Y-212000D02*
D03*
X222500Y-133500D02*
D03*
D16*
X125500Y-152500D02*
D03*
Y-162500D02*
D03*
Y-172500D02*
D03*
Y-182500D02*
D03*
Y-192500D02*
D03*
Y-202500D02*
D03*
X155500D02*
D03*
Y-192500D02*
D03*
Y-182500D02*
D03*
Y-172500D02*
D03*
Y-162500D02*
D03*
Y-152500D02*
D03*
Y-142500D02*
D03*
X220500Y-222000D02*
D03*
Y-232000D02*
D03*
Y-242000D02*
D03*
X250500D02*
D03*
Y-232000D02*
D03*
Y-222000D02*
D03*
Y-212000D02*
D03*
X222500Y-143500D02*
D03*
Y-153500D02*
D03*
Y-163500D02*
D03*
X252500D02*
D03*
Y-153500D02*
D03*
Y-143500D02*
D03*
Y-133500D02*
D03*
D17*
X220500Y-66000D02*
D03*
X210500D02*
D03*
X200500D02*
D03*
X320500Y-64500D02*
D03*
X310500D02*
D03*
X300500D02*
D03*
D18*
X20500Y-367500D02*
D03*
X372500D02*
D03*
Y-19500D02*
D03*
X20500D02*
D03*
M02*
