G04 Layer_Physical_Order=2*
G04 Layer_Color=16711680*
%FSLAX25Y25*%
%MOIN*%
G70*
G01*
G75*
%ADD10C,0.01000*%
%ADD11C,0.07000*%
%ADD12C,0.06000*%
%ADD13C,0.09842*%
%ADD14C,0.05905*%
%ADD15R,0.06600X0.06600*%
%ADD16C,0.06600*%
%ADD17C,0.08000*%
%ADD18R,0.27559X0.27559*%
%ADD19C,0.07874*%
%ADD20C,0.05000*%
%ADD21R,0.25500X0.08000*%
%ADD22R,0.08500X0.24000*%
%ADD23R,0.23000X0.11500*%
G36*
X393500Y-393500D02*
X0D01*
Y0D01*
X393500D01*
Y-393500D01*
D02*
G37*
%LPC*%
G36*
X254771Y-242500D02*
X251000D01*
Y-246271D01*
X251623Y-246189D01*
X252669Y-245756D01*
X253567Y-245067D01*
X254256Y-244169D01*
X254689Y-243123D01*
X254771Y-242500D01*
D02*
G37*
G36*
X250000D02*
X246229D01*
X246311Y-243123D01*
X246744Y-244169D01*
X247433Y-245067D01*
X248331Y-245756D01*
X249377Y-246189D01*
X250000Y-246271D01*
Y-242500D01*
D02*
G37*
G36*
X274500Y-240949D02*
Y-244370D01*
X277921D01*
X277851Y-243838D01*
X277453Y-242877D01*
X276819Y-242051D01*
X275993Y-241417D01*
X275032Y-241019D01*
X274500Y-240949D01*
D02*
G37*
G36*
X273500D02*
X272968Y-241019D01*
X272007Y-241417D01*
X271181Y-242051D01*
X270547Y-242877D01*
X270149Y-243838D01*
X270079Y-244370D01*
X273500D01*
Y-240949D01*
D02*
G37*
G36*
X224771Y-242500D02*
X221000D01*
Y-246271D01*
X221622Y-246189D01*
X222669Y-245756D01*
X223567Y-245067D01*
X224256Y-244169D01*
X224689Y-243123D01*
X224771Y-242500D01*
D02*
G37*
G36*
X273500Y-245370D02*
X270079D01*
X270149Y-245902D01*
X270547Y-246864D01*
X271181Y-247689D01*
X272007Y-248323D01*
X272968Y-248721D01*
X273500Y-248791D01*
Y-245370D01*
D02*
G37*
G36*
X25500Y-231540D02*
X23947Y-231693D01*
X22454Y-232146D01*
X21078Y-232882D01*
X19872Y-233872D01*
X18882Y-235078D01*
X18146Y-236454D01*
X17693Y-237947D01*
X17540Y-239500D01*
X17693Y-241053D01*
X18146Y-242546D01*
X18882Y-243922D01*
X19872Y-245128D01*
X21078Y-246118D01*
X22454Y-246854D01*
X23947Y-247307D01*
X25500Y-247460D01*
X27053Y-247307D01*
X28546Y-246854D01*
X29922Y-246118D01*
X31128Y-245128D01*
X31195Y-245047D01*
X62332D01*
X63508Y-246224D01*
X64026Y-247193D01*
X64770Y-248100D01*
X65677Y-248844D01*
X66711Y-249396D01*
X67833Y-249737D01*
X69000Y-249852D01*
X70167Y-249737D01*
X71289Y-249396D01*
X72323Y-248844D01*
X73230Y-248100D01*
X73974Y-247193D01*
X74526Y-246159D01*
X74867Y-245037D01*
X74982Y-243870D01*
X74867Y-242703D01*
X74526Y-241581D01*
X73974Y-240547D01*
X73230Y-239640D01*
X72323Y-238897D01*
X71354Y-238378D01*
X68553Y-235577D01*
X67404Y-234696D01*
X66066Y-234142D01*
X64630Y-233952D01*
X31195D01*
X31128Y-233872D01*
X29922Y-232882D01*
X28546Y-232146D01*
X27053Y-231693D01*
X25500Y-231540D01*
D02*
G37*
G36*
X220000Y-242500D02*
X216229D01*
X216311Y-243123D01*
X216744Y-244169D01*
X217433Y-245067D01*
X218331Y-245756D01*
X219377Y-246189D01*
X220000Y-246271D01*
Y-242500D01*
D02*
G37*
G36*
X277921Y-245370D02*
X274500D01*
Y-248791D01*
X275032Y-248721D01*
X275993Y-248323D01*
X276819Y-247689D01*
X277453Y-246864D01*
X277851Y-245902D01*
X277921Y-245370D01*
D02*
G37*
G36*
X347000Y-136519D02*
X345833Y-136633D01*
X344711Y-136974D01*
X343677Y-137527D01*
X342770Y-138270D01*
X342026Y-139177D01*
X341474Y-140211D01*
X341133Y-141333D01*
X341018Y-142500D01*
X341133Y-143667D01*
X341453Y-144719D01*
Y-187045D01*
X339947Y-187193D01*
X338454Y-187646D01*
X337078Y-188382D01*
X335872Y-189372D01*
X334882Y-190578D01*
X334146Y-191954D01*
X333693Y-193447D01*
X333540Y-195000D01*
X333693Y-196553D01*
X334146Y-198046D01*
X334882Y-199422D01*
X335872Y-200628D01*
X337078Y-201618D01*
X338454Y-202354D01*
X339947Y-202807D01*
X341500Y-202960D01*
X343053Y-202807D01*
X344546Y-202354D01*
X345922Y-201618D01*
X347128Y-200628D01*
X348118Y-199422D01*
X348854Y-198046D01*
X349307Y-196553D01*
X349460Y-195000D01*
X349449Y-194896D01*
X350923Y-193423D01*
X350923Y-193423D01*
X351804Y-192274D01*
X352358Y-190936D01*
X352548Y-189500D01*
Y-144719D01*
X352867Y-143667D01*
X352982Y-142500D01*
X352867Y-141333D01*
X352526Y-140211D01*
X351974Y-139177D01*
X351230Y-138270D01*
X350323Y-137527D01*
X349289Y-136974D01*
X348167Y-136633D01*
X347000Y-136519D01*
D02*
G37*
G36*
X129771Y-203000D02*
X126000D01*
Y-206771D01*
X126622Y-206689D01*
X127669Y-206256D01*
X128567Y-205567D01*
X129256Y-204669D01*
X129689Y-203623D01*
X129771Y-203000D01*
D02*
G37*
G36*
X277921Y-169370D02*
X274500D01*
Y-172791D01*
X275032Y-172721D01*
X275993Y-172323D01*
X276819Y-171689D01*
X277453Y-170863D01*
X277851Y-169902D01*
X277921Y-169370D01*
D02*
G37*
G36*
X273500D02*
X270079D01*
X270149Y-169902D01*
X270547Y-170863D01*
X271181Y-171689D01*
X272007Y-172323D01*
X272968Y-172721D01*
X273500Y-172791D01*
Y-169370D01*
D02*
G37*
G36*
X125000Y-203000D02*
X121229D01*
X121311Y-203623D01*
X121744Y-204669D01*
X122433Y-205567D01*
X123331Y-206256D01*
X124378Y-206689D01*
X125000Y-206771D01*
Y-203000D01*
D02*
G37*
G36*
X31401Y-220315D02*
X26000D01*
Y-225716D01*
X26661Y-225651D01*
X27777Y-225312D01*
X28806Y-224762D01*
X29707Y-224022D01*
X30447Y-223121D01*
X30997Y-222092D01*
X31336Y-220976D01*
X31401Y-220315D01*
D02*
G37*
G36*
X25000D02*
X19599D01*
X19664Y-220976D01*
X20003Y-222092D01*
X20553Y-223121D01*
X21293Y-224022D01*
X22194Y-224762D01*
X23223Y-225312D01*
X24339Y-225651D01*
X25000Y-225716D01*
Y-220315D01*
D02*
G37*
G36*
X26000Y-213914D02*
Y-219315D01*
X31401D01*
X31336Y-218654D01*
X30997Y-217538D01*
X30447Y-216509D01*
X29707Y-215608D01*
X28806Y-214868D01*
X27777Y-214318D01*
X26661Y-213979D01*
X26000Y-213914D01*
D02*
G37*
G36*
X25000D02*
X24339Y-213979D01*
X23223Y-214318D01*
X22194Y-214868D01*
X21293Y-215608D01*
X20553Y-216509D01*
X20003Y-217538D01*
X19664Y-218654D01*
X19599Y-219315D01*
X25000D01*
Y-213914D01*
D02*
G37*
G36*
X156000Y-323527D02*
X155325Y-323616D01*
X154231Y-324069D01*
X153291Y-324791D01*
X152569Y-325731D01*
X152116Y-326825D01*
X152027Y-327500D01*
X156000D01*
Y-323527D01*
D02*
G37*
G36*
X200000Y-273471D02*
X198824Y-273587D01*
X197693Y-273930D01*
X196651Y-274487D01*
X195737Y-275237D01*
X194987Y-276150D01*
X194430Y-277193D01*
X194416Y-277239D01*
X167577Y-304077D01*
X166696Y-305226D01*
X166142Y-306564D01*
X165953Y-308000D01*
Y-330202D01*
X163702Y-332453D01*
X159910D01*
X159321Y-332138D01*
X159273Y-331545D01*
X159709Y-331209D01*
X160431Y-330269D01*
X160884Y-329175D01*
X160973Y-328500D01*
X156500D01*
X152027D01*
X152116Y-329175D01*
X152569Y-330269D01*
X153291Y-331209D01*
X153727Y-331545D01*
X153679Y-332138D01*
X152871Y-332569D01*
X151882Y-333382D01*
X151069Y-334371D01*
X150466Y-335501D01*
X150094Y-336726D01*
X149969Y-338000D01*
X150094Y-339274D01*
X150466Y-340499D01*
X151069Y-341629D01*
X151745Y-342453D01*
X151527Y-342952D01*
X120798D01*
X112584Y-334739D01*
X112570Y-334693D01*
X112013Y-333650D01*
X111263Y-332737D01*
X110350Y-331987D01*
X109307Y-331430D01*
X108176Y-331087D01*
X107000Y-330971D01*
X105824Y-331087D01*
X104693Y-331430D01*
X103650Y-331987D01*
X102737Y-332737D01*
X101987Y-333650D01*
X101430Y-334693D01*
X101087Y-335824D01*
X100971Y-337000D01*
X101087Y-338176D01*
X101430Y-339307D01*
X101987Y-340350D01*
X102737Y-341263D01*
X103650Y-342013D01*
X104693Y-342570D01*
X104739Y-342584D01*
X114577Y-352423D01*
X114577Y-352423D01*
X115726Y-353304D01*
X117064Y-353858D01*
X118500Y-354047D01*
X118500Y-354047D01*
X193000D01*
X194436Y-353858D01*
X195774Y-353304D01*
X196923Y-352423D01*
X206011Y-343334D01*
X206999Y-343034D01*
X208129Y-342431D01*
X209118Y-341618D01*
X209931Y-340629D01*
X210534Y-339499D01*
X210906Y-338274D01*
X211031Y-337000D01*
X210906Y-335726D01*
X210534Y-334501D01*
X209931Y-333371D01*
X209118Y-332382D01*
X208129Y-331569D01*
X207321Y-331138D01*
X207273Y-330545D01*
X207709Y-330209D01*
X208431Y-329269D01*
X208884Y-328175D01*
X208973Y-327500D01*
X204500D01*
Y-327000D01*
D01*
Y-327500D01*
X200027D01*
X200116Y-328175D01*
X200569Y-329269D01*
X201291Y-330209D01*
X201728Y-330545D01*
X201679Y-331138D01*
X200871Y-331569D01*
X199882Y-332382D01*
X199069Y-333371D01*
X198466Y-334501D01*
X198166Y-335489D01*
X190702Y-342952D01*
X169402D01*
X169232Y-342453D01*
X169923Y-341923D01*
X175423Y-336423D01*
X175423Y-336423D01*
X176304Y-335274D01*
X176858Y-333936D01*
X177048Y-332500D01*
Y-310298D01*
X202261Y-285084D01*
X202307Y-285070D01*
X203349Y-284513D01*
X204263Y-283763D01*
X205013Y-282850D01*
X205570Y-281807D01*
X205913Y-280676D01*
X206029Y-279500D01*
X205913Y-278324D01*
X205570Y-277193D01*
X205013Y-276150D01*
X204263Y-275237D01*
X203349Y-274487D01*
X202307Y-273930D01*
X201176Y-273587D01*
X200000Y-273471D01*
D02*
G37*
G36*
X204000Y-322527D02*
X203325Y-322616D01*
X202231Y-323069D01*
X201291Y-323791D01*
X200569Y-324731D01*
X200116Y-325825D01*
X200027Y-326500D01*
X204000D01*
Y-322527D01*
D02*
G37*
G36*
X157000Y-323527D02*
Y-327500D01*
X160973D01*
X160884Y-326825D01*
X160431Y-325731D01*
X159709Y-324791D01*
X158769Y-324069D01*
X157675Y-323616D01*
X157000Y-323527D01*
D02*
G37*
G36*
X45500Y-329027D02*
X44825Y-329116D01*
X43731Y-329569D01*
X42791Y-330291D01*
X42069Y-331231D01*
X41616Y-332325D01*
X41527Y-333000D01*
X45500D01*
Y-329027D01*
D02*
G37*
G36*
X386280Y-350695D02*
X358720D01*
X357937Y-350798D01*
X357207Y-351100D01*
X356581Y-351581D01*
X356100Y-352207D01*
X355798Y-352937D01*
X355695Y-353720D01*
Y-381279D01*
X355798Y-382063D01*
X356100Y-382792D01*
X356581Y-383419D01*
X357207Y-383900D01*
X357937Y-384202D01*
X358720Y-384305D01*
X386280D01*
X387063Y-384202D01*
X387792Y-383900D01*
X388419Y-383419D01*
X388900Y-382792D01*
X389202Y-382063D01*
X389305Y-381279D01*
Y-353720D01*
X389202Y-352937D01*
X388900Y-352207D01*
X388419Y-351581D01*
X387792Y-351100D01*
X387063Y-350798D01*
X386280Y-350695D01*
D02*
G37*
G36*
X34280D02*
X6720D01*
X5937Y-350798D01*
X5207Y-351100D01*
X4581Y-351581D01*
X4100Y-352207D01*
X3798Y-352937D01*
X3695Y-353720D01*
Y-381279D01*
X3798Y-382063D01*
X4100Y-382792D01*
X4581Y-383419D01*
X5207Y-383900D01*
X5937Y-384202D01*
X6720Y-384305D01*
X34280D01*
X35063Y-384202D01*
X35792Y-383900D01*
X36419Y-383419D01*
X36900Y-382792D01*
X37202Y-382063D01*
X37305Y-381279D01*
Y-353720D01*
X37202Y-352937D01*
X36900Y-352207D01*
X36419Y-351581D01*
X35792Y-351100D01*
X35063Y-350798D01*
X34280Y-350695D01*
D02*
G37*
G36*
X45500Y-334000D02*
X41527D01*
X41616Y-334675D01*
X42069Y-335769D01*
X42791Y-336709D01*
X43731Y-337431D01*
X44825Y-337884D01*
X45500Y-337973D01*
Y-334000D01*
D02*
G37*
G36*
X313500Y-328474D02*
X288000D01*
X287217Y-328577D01*
X287124Y-328616D01*
X286640Y-328663D01*
X285332Y-329060D01*
X284127Y-329704D01*
X283071Y-330571D01*
X282204Y-331627D01*
X281560Y-332833D01*
X281163Y-334140D01*
X281029Y-335500D01*
X281163Y-336860D01*
X281560Y-338168D01*
X282204Y-339373D01*
X283071Y-340429D01*
X284127Y-341296D01*
X285332Y-341940D01*
X286640Y-342337D01*
X287124Y-342384D01*
X287217Y-342423D01*
X288000Y-342526D01*
X293474D01*
Y-360474D01*
X289000D01*
X288217Y-360577D01*
X287487Y-360879D01*
X286860Y-361360D01*
X286380Y-361987D01*
X286077Y-362717D01*
X285974Y-363500D01*
Y-375000D01*
X286077Y-375783D01*
X286380Y-376513D01*
X286860Y-377140D01*
X287487Y-377621D01*
X288217Y-377923D01*
X289000Y-378026D01*
X312000D01*
X312783Y-377923D01*
X313513Y-377621D01*
X314140Y-377140D01*
X314620Y-376513D01*
X314923Y-375783D01*
X315026Y-375000D01*
Y-363500D01*
X314923Y-362717D01*
X314620Y-361987D01*
X314140Y-361360D01*
X313513Y-360879D01*
X312783Y-360577D01*
X312000Y-360474D01*
X308026D01*
Y-342526D01*
X313500D01*
X314283Y-342423D01*
X314376Y-342384D01*
X314860Y-342337D01*
X316167Y-341940D01*
X317373Y-341296D01*
X318429Y-340429D01*
X319296Y-339373D01*
X319940Y-338168D01*
X320337Y-336860D01*
X320471Y-335500D01*
X320337Y-334140D01*
X319940Y-332833D01*
X319296Y-331627D01*
X318429Y-330571D01*
X317373Y-329704D01*
X316167Y-329060D01*
X314860Y-328663D01*
X314376Y-328616D01*
X314283Y-328577D01*
X313500Y-328474D01*
D02*
G37*
G36*
X103973Y-253500D02*
X100000D01*
Y-257473D01*
X100675Y-257384D01*
X101769Y-256931D01*
X102709Y-256209D01*
X103431Y-255269D01*
X103884Y-254175D01*
X103973Y-253500D01*
D02*
G37*
G36*
X99000D02*
X95027D01*
X95116Y-254175D01*
X95569Y-255269D01*
X96291Y-256209D01*
X97231Y-256931D01*
X98325Y-257384D01*
X99000Y-257473D01*
Y-253500D01*
D02*
G37*
G36*
X100000Y-248527D02*
Y-252500D01*
X103973D01*
X103884Y-251825D01*
X103431Y-250731D01*
X102709Y-249791D01*
X101769Y-249069D01*
X100675Y-248616D01*
X100000Y-248527D01*
D02*
G37*
G36*
X99000D02*
X98325Y-248616D01*
X97231Y-249069D01*
X96291Y-249791D01*
X95569Y-250731D01*
X95116Y-251825D01*
X95027Y-252500D01*
X99000D01*
Y-248527D01*
D02*
G37*
G36*
X45000Y-286531D02*
Y-290000D01*
X48469D01*
X48397Y-289456D01*
X47994Y-288483D01*
X47353Y-287647D01*
X46517Y-287006D01*
X45544Y-286603D01*
X45000Y-286531D01*
D02*
G37*
G36*
X44000Y-291000D02*
X40531D01*
X40603Y-291544D01*
X41006Y-292517D01*
X41647Y-293353D01*
X42483Y-293994D01*
X43456Y-294397D01*
X44000Y-294469D01*
Y-291000D01*
D02*
G37*
G36*
X205000Y-322527D02*
Y-326500D01*
X208973D01*
X208884Y-325825D01*
X208431Y-324731D01*
X207709Y-323791D01*
X206769Y-323069D01*
X205675Y-322616D01*
X205000Y-322527D01*
D02*
G37*
G36*
X44000Y-286531D02*
X43456Y-286603D01*
X42483Y-287006D01*
X41647Y-287647D01*
X41006Y-288483D01*
X40603Y-289456D01*
X40531Y-290000D01*
X44000D01*
Y-286531D01*
D02*
G37*
G36*
X48469Y-291000D02*
X45000D01*
Y-294469D01*
X45544Y-294397D01*
X46517Y-293994D01*
X47353Y-293353D01*
X47994Y-292517D01*
X48397Y-291544D01*
X48469Y-291000D01*
D02*
G37*
G36*
X273500Y-164949D02*
X272968Y-165019D01*
X272007Y-165417D01*
X271181Y-166051D01*
X270547Y-166877D01*
X270149Y-167838D01*
X270079Y-168370D01*
X273500D01*
Y-164949D01*
D02*
G37*
G36*
X258500Y-50425D02*
X257968Y-50495D01*
X257007Y-50894D01*
X256181Y-51527D01*
X255547Y-52353D01*
X255149Y-53315D01*
X255079Y-53847D01*
X258500D01*
Y-50425D01*
D02*
G37*
G36*
X161500D02*
X160968Y-50495D01*
X160007Y-50894D01*
X159181Y-51527D01*
X158547Y-52353D01*
X158149Y-53315D01*
X158079Y-53847D01*
X161500D01*
Y-50425D01*
D02*
G37*
G36*
X114500Y-50425D02*
Y-53847D01*
X117921D01*
X117851Y-53315D01*
X117453Y-52353D01*
X116819Y-51527D01*
X115993Y-50894D01*
X115032Y-50495D01*
X114500Y-50425D01*
D02*
G37*
G36*
X361000Y-50425D02*
X360468Y-50495D01*
X359507Y-50894D01*
X358681Y-51527D01*
X358047Y-52353D01*
X357649Y-53315D01*
X357579Y-53847D01*
X361000D01*
Y-50425D01*
D02*
G37*
G36*
X113500D02*
X112968Y-50495D01*
X112007Y-50894D01*
X111181Y-51527D01*
X110547Y-52353D01*
X110149Y-53315D01*
X110079Y-53847D01*
X113500D01*
Y-50425D01*
D02*
G37*
G36*
X165921Y-54847D02*
X162500D01*
Y-58267D01*
X163032Y-58197D01*
X163993Y-57799D01*
X164819Y-57166D01*
X165453Y-56340D01*
X165851Y-55378D01*
X165921Y-54847D01*
D02*
G37*
G36*
X117921D02*
X114500D01*
Y-58267D01*
X115032Y-58197D01*
X115993Y-57799D01*
X116819Y-57166D01*
X117453Y-56340D01*
X117851Y-55378D01*
X117921Y-54847D01*
D02*
G37*
G36*
X365421D02*
X362000D01*
Y-58267D01*
X362532Y-58197D01*
X363493Y-57799D01*
X364319Y-57166D01*
X364953Y-56340D01*
X365351Y-55378D01*
X365421Y-54847D01*
D02*
G37*
G36*
X262921D02*
X259500D01*
Y-58267D01*
X260032Y-58197D01*
X260993Y-57799D01*
X261819Y-57166D01*
X262453Y-56340D01*
X262851Y-55378D01*
X262921Y-54847D01*
D02*
G37*
G36*
X76000Y-39527D02*
Y-43500D01*
X79973D01*
X79884Y-42825D01*
X79431Y-41731D01*
X78709Y-40791D01*
X77769Y-40069D01*
X76675Y-39616D01*
X76000Y-39527D01*
D02*
G37*
G36*
X75000D02*
X74325Y-39616D01*
X73231Y-40069D01*
X72291Y-40791D01*
X71569Y-41731D01*
X71116Y-42825D01*
X71027Y-43500D01*
X75000D01*
Y-39527D01*
D02*
G37*
G36*
X386280Y-2695D02*
X358720D01*
X357937Y-2798D01*
X357207Y-3100D01*
X356581Y-3581D01*
X356100Y-4208D01*
X355798Y-4937D01*
X355695Y-5720D01*
Y-33279D01*
X355798Y-34063D01*
X356100Y-34793D01*
X356581Y-35419D01*
X357207Y-35900D01*
X357937Y-36202D01*
X358720Y-36305D01*
X386280D01*
X387063Y-36202D01*
X387792Y-35900D01*
X388419Y-35419D01*
X388900Y-34793D01*
X389202Y-34063D01*
X389305Y-33279D01*
Y-5720D01*
X389202Y-4937D01*
X388900Y-4208D01*
X388419Y-3581D01*
X387792Y-3100D01*
X387063Y-2798D01*
X386280Y-2695D01*
D02*
G37*
G36*
X34280D02*
X6720D01*
X5937Y-2798D01*
X5207Y-3100D01*
X4581Y-3581D01*
X4100Y-4208D01*
X3798Y-4937D01*
X3695Y-5720D01*
Y-33279D01*
X3798Y-34063D01*
X4100Y-34793D01*
X4581Y-35419D01*
X5207Y-35900D01*
X5937Y-36202D01*
X6720Y-36305D01*
X34280D01*
X35063Y-36202D01*
X35792Y-35900D01*
X36419Y-35419D01*
X36900Y-34793D01*
X37202Y-34063D01*
X37305Y-33279D01*
Y-5720D01*
X37202Y-4937D01*
X36900Y-4208D01*
X36419Y-3581D01*
X35792Y-3100D01*
X35063Y-2798D01*
X34280Y-2695D01*
D02*
G37*
G36*
X79973Y-44500D02*
X76000D01*
Y-48473D01*
X76675Y-48384D01*
X77769Y-47931D01*
X78709Y-47209D01*
X79431Y-46269D01*
X79884Y-45175D01*
X79973Y-44500D01*
D02*
G37*
G36*
X259500Y-50425D02*
Y-53847D01*
X262921D01*
X262851Y-53315D01*
X262453Y-52353D01*
X261819Y-51527D01*
X260993Y-50894D01*
X260032Y-50495D01*
X259500Y-50425D01*
D02*
G37*
G36*
X162500D02*
Y-53847D01*
X165921D01*
X165851Y-53315D01*
X165453Y-52353D01*
X164819Y-51527D01*
X163993Y-50894D01*
X163032Y-50495D01*
X162500Y-50425D01*
D02*
G37*
G36*
X75000Y-44500D02*
X71027D01*
X71116Y-45175D01*
X71569Y-46269D01*
X72291Y-47209D01*
X73231Y-47931D01*
X74325Y-48384D01*
X75000Y-48473D01*
Y-44500D01*
D02*
G37*
G36*
X362000Y-50425D02*
Y-53847D01*
X365421D01*
X365351Y-53315D01*
X364953Y-52353D01*
X364319Y-51527D01*
X363493Y-50894D01*
X362532Y-50495D01*
X362000Y-50425D01*
D02*
G37*
G36*
X361000Y-54847D02*
X357579D01*
X357649Y-55378D01*
X358047Y-56340D01*
X358681Y-57166D01*
X359507Y-57799D01*
X360468Y-58197D01*
X361000Y-58267D01*
Y-54847D01*
D02*
G37*
G36*
X63000Y-143527D02*
X62325Y-143616D01*
X61231Y-144069D01*
X60291Y-144791D01*
X59569Y-145731D01*
X59116Y-146825D01*
X59027Y-147500D01*
X63000D01*
Y-143527D01*
D02*
G37*
G36*
X35500Y-37469D02*
X34226Y-37594D01*
X33000Y-37966D01*
X31871Y-38569D01*
X30882Y-39382D01*
X30069Y-40371D01*
X29466Y-41500D01*
X29094Y-42726D01*
X28969Y-44000D01*
X29094Y-45274D01*
X29466Y-46499D01*
X29952Y-47410D01*
Y-59923D01*
X29466Y-60834D01*
X29166Y-61822D01*
X11577Y-79411D01*
X10696Y-80560D01*
X10142Y-81898D01*
X9952Y-83333D01*
Y-132500D01*
X10142Y-133936D01*
X10696Y-135274D01*
X11577Y-136423D01*
X17551Y-142396D01*
X17540Y-142500D01*
X17693Y-144053D01*
X18146Y-145546D01*
X18882Y-146922D01*
X19872Y-148128D01*
X21078Y-149118D01*
X22454Y-149854D01*
X23947Y-150307D01*
X25500Y-150460D01*
X27053Y-150307D01*
X28546Y-149854D01*
X29922Y-149118D01*
X30437Y-148695D01*
X30773Y-149066D01*
X25604Y-154236D01*
X25500Y-154226D01*
X23947Y-154378D01*
X22454Y-154831D01*
X21078Y-155567D01*
X19872Y-156557D01*
X18882Y-157763D01*
X18146Y-159139D01*
X17693Y-160632D01*
X17540Y-162185D01*
X17693Y-163738D01*
X18146Y-165231D01*
X18882Y-166607D01*
X19872Y-167813D01*
X21078Y-168803D01*
X22454Y-169539D01*
X23947Y-169992D01*
X25500Y-170145D01*
X27053Y-169992D01*
X28546Y-169539D01*
X29922Y-168803D01*
X31128Y-167813D01*
X32118Y-166607D01*
X32854Y-165231D01*
X33307Y-163738D01*
X33460Y-162185D01*
X33449Y-162081D01*
X45923Y-149608D01*
X45923Y-149608D01*
X46804Y-148459D01*
X47358Y-147121D01*
X47548Y-145685D01*
Y-108500D01*
X47548Y-108500D01*
X47358Y-107064D01*
X46804Y-105726D01*
X45923Y-104577D01*
X41834Y-100489D01*
X41534Y-99501D01*
X41047Y-98590D01*
Y-86077D01*
X41534Y-85166D01*
X41906Y-83941D01*
X42031Y-82667D01*
X41906Y-81392D01*
X41534Y-80167D01*
X40931Y-79038D01*
X40118Y-78048D01*
X39129Y-77236D01*
X37999Y-76632D01*
X36774Y-76261D01*
X35500Y-76135D01*
X34226Y-76261D01*
X33000Y-76632D01*
X31871Y-77236D01*
X30882Y-78048D01*
X30069Y-79038D01*
X29466Y-80167D01*
X29094Y-81392D01*
X28969Y-82667D01*
X29094Y-83941D01*
X29466Y-85166D01*
X29952Y-86077D01*
Y-98590D01*
X29466Y-99501D01*
X29094Y-100726D01*
X28969Y-102000D01*
X29094Y-103274D01*
X29466Y-104499D01*
X30069Y-105629D01*
X30882Y-106618D01*
X31871Y-107431D01*
X33000Y-108034D01*
X33989Y-108334D01*
X36452Y-110798D01*
Y-143387D01*
X32066Y-147773D01*
X31695Y-147437D01*
X32118Y-146922D01*
X32854Y-145546D01*
X33307Y-144053D01*
X33460Y-142500D01*
X33307Y-140947D01*
X32854Y-139454D01*
X32118Y-138078D01*
X31128Y-136872D01*
X29922Y-135882D01*
X28546Y-135146D01*
X27053Y-134693D01*
X25500Y-134540D01*
X25396Y-134551D01*
X21047Y-130202D01*
Y-85631D01*
X37011Y-69667D01*
X37999Y-69368D01*
X39129Y-68764D01*
X40118Y-67952D01*
X40931Y-66962D01*
X41534Y-65833D01*
X41906Y-64608D01*
X42031Y-63333D01*
X41906Y-62059D01*
X41534Y-60834D01*
X41047Y-59923D01*
Y-47410D01*
X41534Y-46499D01*
X41906Y-45274D01*
X42031Y-44000D01*
X41906Y-42726D01*
X41534Y-41500D01*
X40931Y-40371D01*
X40118Y-39382D01*
X39129Y-38569D01*
X37999Y-37966D01*
X36774Y-37594D01*
X35500Y-37469D01*
D02*
G37*
G36*
X125421Y-110500D02*
X122000D01*
Y-113921D01*
X122532Y-113851D01*
X123493Y-113453D01*
X124319Y-112819D01*
X124953Y-111993D01*
X125351Y-111032D01*
X125421Y-110500D01*
D02*
G37*
G36*
X121000D02*
X117579D01*
X117649Y-111032D01*
X118047Y-111993D01*
X118681Y-112819D01*
X119507Y-113453D01*
X120468Y-113851D01*
X121000Y-113921D01*
Y-110500D01*
D02*
G37*
G36*
X256771Y-164000D02*
X253000D01*
Y-167771D01*
X253623Y-167689D01*
X254669Y-167256D01*
X255567Y-166567D01*
X256256Y-165669D01*
X256689Y-164622D01*
X256771Y-164000D01*
D02*
G37*
G36*
X222000D02*
X218229D01*
X218311Y-164622D01*
X218744Y-165669D01*
X219433Y-166567D01*
X220331Y-167256D01*
X221377Y-167689D01*
X222000Y-167771D01*
Y-164000D01*
D02*
G37*
G36*
X274500Y-164949D02*
Y-168370D01*
X277921D01*
X277851Y-167838D01*
X277453Y-166877D01*
X276819Y-166051D01*
X275993Y-165417D01*
X275032Y-165019D01*
X274500Y-164949D01*
D02*
G37*
G36*
X252000Y-164000D02*
X248229D01*
X248311Y-164622D01*
X248744Y-165669D01*
X249433Y-166567D01*
X250331Y-167256D01*
X251378Y-167689D01*
X252000Y-167771D01*
Y-164000D01*
D02*
G37*
G36*
X226771D02*
X223000D01*
Y-167771D01*
X223622Y-167689D01*
X224669Y-167256D01*
X225567Y-166567D01*
X226256Y-165669D01*
X226689Y-164622D01*
X226771Y-164000D01*
D02*
G37*
G36*
X113500Y-54847D02*
X110079D01*
X110149Y-55378D01*
X110547Y-56340D01*
X111181Y-57166D01*
X112007Y-57799D01*
X112968Y-58197D01*
X113500Y-58267D01*
Y-54847D01*
D02*
G37*
G36*
X320500Y-57466D02*
X319128Y-57601D01*
X317808Y-58002D01*
X316592Y-58652D01*
X315526Y-59526D01*
X314651Y-60592D01*
X314532Y-60817D01*
X313950Y-60845D01*
X313022Y-60132D01*
X311805Y-59629D01*
X311000Y-59523D01*
Y-64500D01*
Y-69477D01*
X311805Y-69371D01*
X313022Y-68867D01*
X313950Y-68155D01*
X314532Y-68183D01*
X314651Y-68408D01*
X315526Y-69474D01*
X316592Y-70349D01*
X317808Y-70999D01*
X319128Y-71399D01*
X319600Y-71445D01*
X323155Y-75000D01*
X302702Y-95452D01*
X282350D01*
X282307Y-95430D01*
X281176Y-95087D01*
X280000Y-94971D01*
X278824Y-95087D01*
X277693Y-95430D01*
X276651Y-95987D01*
X275737Y-96737D01*
X274987Y-97650D01*
X274430Y-98693D01*
X274087Y-99824D01*
X273971Y-101000D01*
X274087Y-102176D01*
X274430Y-103307D01*
X274987Y-104350D01*
X275737Y-105263D01*
X276651Y-106013D01*
X277693Y-106570D01*
X278824Y-106913D01*
X280000Y-107029D01*
X281176Y-106913D01*
X282307Y-106570D01*
X282350Y-106547D01*
X305000D01*
X306436Y-106358D01*
X307774Y-105804D01*
X308923Y-104923D01*
X333298Y-80547D01*
X357658D01*
X358177Y-80974D01*
X359146Y-81492D01*
X364453Y-86798D01*
Y-241202D01*
X322202Y-283453D01*
X251798D01*
X245584Y-277239D01*
X245570Y-277193D01*
X245013Y-276150D01*
X244263Y-275237D01*
X243350Y-274487D01*
X242307Y-273930D01*
X241176Y-273587D01*
X240000Y-273471D01*
X238824Y-273587D01*
X237693Y-273930D01*
X236650Y-274487D01*
X235737Y-275237D01*
X234987Y-276150D01*
X234430Y-277193D01*
X234087Y-278324D01*
X233971Y-279500D01*
X234087Y-280676D01*
X234430Y-281807D01*
X234987Y-282850D01*
X235737Y-283763D01*
X236650Y-284513D01*
X237693Y-285070D01*
X237739Y-285084D01*
X243952Y-291298D01*
Y-342702D01*
X223202Y-363453D01*
X103798D01*
X72334Y-331989D01*
X72034Y-331000D01*
X71431Y-329871D01*
X70618Y-328882D01*
X69629Y-328069D01*
X68499Y-327466D01*
X67274Y-327094D01*
X66000Y-326969D01*
X64726Y-327094D01*
X63500Y-327466D01*
X62371Y-328069D01*
X61999Y-328375D01*
X61547Y-328161D01*
Y-321298D01*
X84500Y-298345D01*
X87077Y-300923D01*
X88226Y-301804D01*
X89564Y-302358D01*
X91000Y-302548D01*
X91000Y-302548D01*
X104650D01*
X104693Y-302570D01*
X105824Y-302913D01*
X107000Y-303029D01*
X108176Y-302913D01*
X109307Y-302570D01*
X109350Y-302548D01*
X134500D01*
X135936Y-302358D01*
X137274Y-301804D01*
X138423Y-300923D01*
X183298Y-256048D01*
X192500D01*
X193936Y-255858D01*
X195274Y-255304D01*
X196423Y-254423D01*
X213298Y-237547D01*
X217514D01*
X218077Y-237849D01*
X218141Y-238390D01*
X217433Y-238933D01*
X216744Y-239831D01*
X216311Y-240878D01*
X216229Y-241500D01*
X224771D01*
X224689Y-240878D01*
X224256Y-239831D01*
X223567Y-238933D01*
X222859Y-238390D01*
X222923Y-237849D01*
X224017Y-237264D01*
X224976Y-236476D01*
X225764Y-235517D01*
X226349Y-234423D01*
X226709Y-233235D01*
X226831Y-232000D01*
X226709Y-230765D01*
X226349Y-229577D01*
X225764Y-228483D01*
X224976Y-227524D01*
X224643Y-227250D01*
Y-226750D01*
X224976Y-226476D01*
X225764Y-225517D01*
X226349Y-224423D01*
X226709Y-223235D01*
X226831Y-222000D01*
X226709Y-220765D01*
X226349Y-219577D01*
X225764Y-218483D01*
X225624Y-218312D01*
X225703Y-217621D01*
X225799Y-217547D01*
X245419D01*
X245633Y-218000D01*
X245236Y-218483D01*
X244651Y-219577D01*
X244291Y-220765D01*
X244169Y-222000D01*
X244291Y-223235D01*
X244651Y-224423D01*
X245236Y-225517D01*
X246024Y-226476D01*
X246357Y-226750D01*
Y-227250D01*
X246024Y-227524D01*
X245236Y-228483D01*
X244651Y-229577D01*
X244291Y-230765D01*
X244169Y-232000D01*
X244291Y-233235D01*
X244651Y-234423D01*
X245236Y-235517D01*
X246024Y-236476D01*
X246983Y-237264D01*
X248077Y-237849D01*
X248141Y-238390D01*
X247433Y-238933D01*
X246744Y-239831D01*
X246311Y-240878D01*
X246229Y-241500D01*
X254771D01*
X254689Y-240878D01*
X254256Y-239831D01*
X253567Y-238933D01*
X252859Y-238390D01*
X252923Y-237849D01*
X254017Y-237264D01*
X254976Y-236476D01*
X255764Y-235517D01*
X256349Y-234423D01*
X256534Y-233811D01*
X262798Y-227548D01*
X272000D01*
X273436Y-227358D01*
X274774Y-226804D01*
X275923Y-225923D01*
X281613Y-220233D01*
X335805D01*
X335872Y-220313D01*
X337078Y-221303D01*
X338454Y-222039D01*
X339947Y-222492D01*
X341500Y-222645D01*
X343053Y-222492D01*
X344546Y-222039D01*
X345922Y-221303D01*
X347128Y-220313D01*
X348118Y-219107D01*
X348854Y-217731D01*
X349307Y-216238D01*
X349460Y-214685D01*
X349307Y-213132D01*
X348854Y-211639D01*
X348118Y-210263D01*
X347128Y-209057D01*
X345922Y-208067D01*
X344546Y-207331D01*
X343053Y-206878D01*
X341500Y-206726D01*
X339947Y-206878D01*
X338454Y-207331D01*
X337078Y-208067D01*
X335872Y-209057D01*
X335805Y-209138D01*
X279361D01*
X279278Y-209070D01*
X279057Y-208667D01*
X279526Y-207789D01*
X279867Y-206667D01*
X279982Y-205500D01*
X279867Y-204333D01*
X279526Y-203211D01*
X278974Y-202177D01*
X278230Y-201270D01*
X277323Y-200526D01*
X276289Y-199974D01*
X275167Y-199633D01*
X274000Y-199519D01*
X272833Y-199633D01*
X271711Y-199974D01*
X270677Y-200526D01*
X269770Y-201270D01*
X269249Y-201905D01*
X264702Y-206452D01*
X253486D01*
X252923Y-206151D01*
X251735Y-205791D01*
X250500Y-205669D01*
X249265Y-205791D01*
X248077Y-206151D01*
X247514Y-206452D01*
X238298D01*
X212547Y-180702D01*
Y-170850D01*
X212570Y-170807D01*
X212913Y-169676D01*
X213029Y-168500D01*
X212913Y-167324D01*
X212570Y-166193D01*
X212013Y-165150D01*
X211263Y-164237D01*
X210349Y-163487D01*
X209307Y-162930D01*
X208176Y-162587D01*
X207000Y-162471D01*
X205824Y-162587D01*
X204693Y-162930D01*
X203650Y-163487D01*
X202737Y-164237D01*
X201987Y-165150D01*
X201430Y-166193D01*
X201087Y-167324D01*
X200971Y-168500D01*
X201087Y-169676D01*
X201430Y-170807D01*
X201452Y-170850D01*
Y-183000D01*
X201642Y-184436D01*
X202196Y-185774D01*
X203077Y-186923D01*
X221367Y-205212D01*
X221176Y-205674D01*
X217200D01*
X216417Y-205777D01*
X215687Y-206080D01*
X215060Y-206560D01*
X214580Y-207187D01*
X214277Y-207917D01*
X214174Y-208700D01*
Y-214952D01*
X172094D01*
X171817Y-214537D01*
X171858Y-214436D01*
X172047Y-213000D01*
Y-172798D01*
X186326Y-158519D01*
X186750Y-158802D01*
X186642Y-159064D01*
X186452Y-160500D01*
Y-192000D01*
X186642Y-193436D01*
X187196Y-194774D01*
X188077Y-195923D01*
X190416Y-198261D01*
X190430Y-198307D01*
X190987Y-199349D01*
X191737Y-200263D01*
X192650Y-201013D01*
X193693Y-201570D01*
X194824Y-201913D01*
X196000Y-202029D01*
X197176Y-201913D01*
X198307Y-201570D01*
X199349Y-201013D01*
X200263Y-200263D01*
X201013Y-199349D01*
X201570Y-198307D01*
X201913Y-197176D01*
X202029Y-196000D01*
X201913Y-194824D01*
X201570Y-193693D01*
X201013Y-192650D01*
X200263Y-191737D01*
X199349Y-190987D01*
X198307Y-190430D01*
X198261Y-190416D01*
X197547Y-189702D01*
Y-162798D01*
X201298Y-159047D01*
X219514D01*
X220077Y-159349D01*
X220141Y-159890D01*
X219433Y-160433D01*
X218744Y-161331D01*
X218311Y-162378D01*
X218229Y-163000D01*
X226771D01*
X226689Y-162378D01*
X226256Y-161331D01*
X225567Y-160433D01*
X224859Y-159890D01*
X224923Y-159349D01*
X226017Y-158764D01*
X226976Y-157976D01*
X227764Y-157017D01*
X228349Y-155923D01*
X228709Y-154735D01*
X228831Y-153500D01*
X228709Y-152265D01*
X228349Y-151077D01*
X227764Y-149983D01*
X226976Y-149024D01*
X226643Y-148750D01*
Y-148250D01*
X226976Y-147976D01*
X227764Y-147017D01*
X228349Y-145923D01*
X228709Y-144735D01*
X228831Y-143500D01*
X228709Y-142265D01*
X228349Y-141077D01*
X227764Y-139983D01*
X227624Y-139812D01*
X227703Y-139121D01*
X227799Y-139048D01*
X247419D01*
X247633Y-139499D01*
X247236Y-139983D01*
X246651Y-141077D01*
X246291Y-142265D01*
X246169Y-143500D01*
X246291Y-144735D01*
X246651Y-145923D01*
X247236Y-147017D01*
X248024Y-147976D01*
X248357Y-148250D01*
Y-148750D01*
X248024Y-149024D01*
X247236Y-149983D01*
X246651Y-151077D01*
X246291Y-152265D01*
X246169Y-153500D01*
X246291Y-154735D01*
X246651Y-155923D01*
X247236Y-157017D01*
X248024Y-157976D01*
X248983Y-158764D01*
X250077Y-159349D01*
X250141Y-159890D01*
X249433Y-160433D01*
X248744Y-161331D01*
X248311Y-162378D01*
X248229Y-163000D01*
X256771D01*
X256689Y-162378D01*
X256256Y-161331D01*
X255567Y-160433D01*
X254859Y-159890D01*
X254923Y-159349D01*
X255486Y-159047D01*
X256000D01*
X257436Y-158858D01*
X258774Y-158304D01*
X259923Y-157423D01*
X268298Y-149048D01*
X306630D01*
X308066Y-148858D01*
X309404Y-148304D01*
X309666Y-148103D01*
X309919Y-148026D01*
X310953Y-147474D01*
X311859Y-146730D01*
X312603Y-145823D01*
X313156Y-144789D01*
X313496Y-143667D01*
X313612Y-142500D01*
X313496Y-141333D01*
X313156Y-140211D01*
X312603Y-139177D01*
X311859Y-138270D01*
X310953Y-137527D01*
X309919Y-136974D01*
X308797Y-136633D01*
X307630Y-136519D01*
X306463Y-136633D01*
X305341Y-136974D01*
X304307Y-137527D01*
X303788Y-137952D01*
X266000D01*
X266000Y-137952D01*
X266000Y-137952D01*
X257581D01*
X257367Y-137501D01*
X257764Y-137017D01*
X258349Y-135923D01*
X258534Y-135311D01*
X259302Y-134543D01*
X260064Y-134858D01*
X261500Y-135047D01*
X271781D01*
X272833Y-135367D01*
X274000Y-135482D01*
X275167Y-135367D01*
X276289Y-135026D01*
X277323Y-134474D01*
X278230Y-133730D01*
X278974Y-132823D01*
X279526Y-131789D01*
X279867Y-130667D01*
X279982Y-129500D01*
X279867Y-128333D01*
X279526Y-127211D01*
X278974Y-126177D01*
X278230Y-125270D01*
X277323Y-124527D01*
X276289Y-123974D01*
X275167Y-123633D01*
X274000Y-123519D01*
X272833Y-123633D01*
X271781Y-123952D01*
X263798D01*
X262923Y-123077D01*
X262923Y-123077D01*
X260547Y-120702D01*
Y-109000D01*
X260547Y-109000D01*
X260547Y-109000D01*
Y-82298D01*
X261298Y-81547D01*
X289000D01*
X290436Y-81358D01*
X291774Y-80804D01*
X292923Y-79923D01*
X301400Y-71445D01*
X301872Y-71399D01*
X303192Y-70999D01*
X304408Y-70349D01*
X305474Y-69474D01*
X306348Y-68408D01*
X306468Y-68183D01*
X307050Y-68155D01*
X307978Y-68867D01*
X309195Y-69371D01*
X310000Y-69477D01*
Y-64500D01*
Y-59523D01*
X309195Y-59629D01*
X307978Y-60132D01*
X307050Y-60845D01*
X306468Y-60817D01*
X306348Y-60592D01*
X305474Y-59526D01*
X304408Y-58652D01*
X303192Y-58002D01*
X301872Y-57601D01*
X300500Y-57466D01*
X299128Y-57601D01*
X297808Y-58002D01*
X296592Y-58652D01*
X295526Y-59526D01*
X294652Y-60592D01*
X294002Y-61808D01*
X293601Y-63128D01*
X293555Y-63600D01*
X286702Y-70452D01*
X261219D01*
X260167Y-70133D01*
X259000Y-70018D01*
X257833Y-70133D01*
X256781Y-70452D01*
X232798D01*
X227445Y-65100D01*
X227399Y-64628D01*
X226998Y-63308D01*
X226348Y-62092D01*
X225474Y-61026D01*
X224408Y-60151D01*
X223192Y-59501D01*
X221872Y-59101D01*
X220500Y-58966D01*
X219128Y-59101D01*
X217808Y-59501D01*
X216592Y-60151D01*
X215526Y-61026D01*
X214651Y-62092D01*
X214532Y-62317D01*
X213950Y-62345D01*
X213022Y-61633D01*
X211805Y-61129D01*
X211000Y-61023D01*
Y-66000D01*
Y-70977D01*
X211805Y-70871D01*
X213022Y-70367D01*
X213950Y-69655D01*
X214532Y-69683D01*
X214651Y-69908D01*
X215526Y-70974D01*
X216592Y-71848D01*
X217808Y-72499D01*
X219128Y-72899D01*
X219600Y-72945D01*
X226577Y-79923D01*
X226577Y-79923D01*
X227726Y-80804D01*
X229064Y-81358D01*
X230500Y-81547D01*
X230500Y-81547D01*
X249452D01*
Y-106702D01*
X244202Y-111952D01*
X218500D01*
X218500Y-111952D01*
X217064Y-112142D01*
X215726Y-112696D01*
X214577Y-113577D01*
X214577Y-113577D01*
X204739Y-123416D01*
X204693Y-123430D01*
X203650Y-123987D01*
X202737Y-124737D01*
X201987Y-125651D01*
X201430Y-126693D01*
X201087Y-127824D01*
X200971Y-129000D01*
X201087Y-130176D01*
X201430Y-131307D01*
X201987Y-132350D01*
X202737Y-133263D01*
X203650Y-134013D01*
X204693Y-134570D01*
X205824Y-134913D01*
X207000Y-135029D01*
X208176Y-134913D01*
X209307Y-134570D01*
X210349Y-134013D01*
X211263Y-133263D01*
X212013Y-132350D01*
X212570Y-131307D01*
X212584Y-131261D01*
X220798Y-123047D01*
X246500D01*
X247936Y-122858D01*
X248953Y-122437D01*
X249452Y-122771D01*
Y-123000D01*
X249642Y-124436D01*
X250196Y-125774D01*
X251077Y-126923D01*
X251155Y-127000D01*
X250689Y-127466D01*
X250077Y-127651D01*
X249514Y-127953D01*
X227799D01*
X227313Y-127579D01*
X226583Y-127277D01*
X225800Y-127174D01*
X219200D01*
X218417Y-127277D01*
X217687Y-127579D01*
X217060Y-128060D01*
X216580Y-128687D01*
X216277Y-129417D01*
X216174Y-130200D01*
Y-136800D01*
X216260Y-137452D01*
X215957Y-137952D01*
X193500D01*
X193500Y-137952D01*
X192064Y-138142D01*
X190726Y-138696D01*
X189577Y-139577D01*
X189577Y-139577D01*
X162577Y-166577D01*
X161696Y-167726D01*
X161243Y-168819D01*
X161057Y-168883D01*
X160680Y-168881D01*
X159976Y-168024D01*
X159643Y-167750D01*
Y-167250D01*
X159976Y-166976D01*
X160764Y-166017D01*
X161349Y-164923D01*
X161709Y-163735D01*
X161830Y-162500D01*
X161709Y-161265D01*
X161349Y-160077D01*
X160764Y-158983D01*
X159976Y-158024D01*
X159643Y-157750D01*
Y-157250D01*
X159976Y-156976D01*
X160764Y-156017D01*
X161349Y-154923D01*
X161709Y-153735D01*
X161830Y-152500D01*
X161709Y-151265D01*
X161349Y-150077D01*
X160764Y-148983D01*
X159976Y-148024D01*
X159643Y-147750D01*
Y-147250D01*
X159976Y-146976D01*
X160764Y-146017D01*
X161349Y-144923D01*
X161709Y-143735D01*
X161830Y-142500D01*
X161709Y-141265D01*
X161349Y-140077D01*
X160764Y-138983D01*
X159976Y-138024D01*
X159547Y-137672D01*
Y-119168D01*
X163224Y-115492D01*
X164193Y-114973D01*
X165100Y-114230D01*
X165844Y-113323D01*
X166362Y-112354D01*
X172168Y-106547D01*
X238650D01*
X238693Y-106570D01*
X239824Y-106913D01*
X241000Y-107029D01*
X242176Y-106913D01*
X243307Y-106570D01*
X244350Y-106013D01*
X245263Y-105263D01*
X246013Y-104350D01*
X246570Y-103307D01*
X246913Y-102176D01*
X247029Y-101000D01*
X246913Y-99824D01*
X246570Y-98693D01*
X246013Y-97650D01*
X245263Y-96737D01*
X244350Y-95987D01*
X243307Y-95430D01*
X242176Y-95087D01*
X241000Y-94971D01*
X239824Y-95087D01*
X238693Y-95430D01*
X238650Y-95452D01*
X169870D01*
X168434Y-95642D01*
X167096Y-96196D01*
X165947Y-97077D01*
X158517Y-104508D01*
X157547Y-105026D01*
X156641Y-105770D01*
X155897Y-106677D01*
X155378Y-107647D01*
X149572Y-113452D01*
X130000D01*
X130000Y-113452D01*
X128564Y-113642D01*
X127226Y-114196D01*
X126077Y-115077D01*
X126077Y-115077D01*
X99077Y-142077D01*
X98196Y-143226D01*
X97642Y-144564D01*
X97452Y-146000D01*
Y-154829D01*
X97000Y-154966D01*
X95871Y-155569D01*
X94882Y-156382D01*
X94069Y-157371D01*
X93466Y-158501D01*
X93094Y-159726D01*
X92969Y-161000D01*
X93094Y-162274D01*
X93466Y-163499D01*
X94069Y-164629D01*
X94882Y-165618D01*
X95871Y-166431D01*
X97000Y-167034D01*
X98226Y-167406D01*
X99500Y-167531D01*
X100774Y-167406D01*
X101999Y-167034D01*
X103129Y-166431D01*
X104118Y-165618D01*
X104931Y-164629D01*
X105534Y-163499D01*
X105834Y-162511D01*
X106923Y-161423D01*
X106923Y-161423D01*
X107804Y-160274D01*
X107967Y-159882D01*
X108452Y-160015D01*
Y-162702D01*
X104077Y-167077D01*
X103196Y-168226D01*
X102642Y-169564D01*
X102453Y-171000D01*
Y-190202D01*
X97989Y-194666D01*
X97000Y-194966D01*
X95956Y-195524D01*
X95064Y-195642D01*
X93726Y-196196D01*
X92577Y-197077D01*
X89702Y-199952D01*
X72842D01*
X72323Y-199527D01*
X71289Y-198974D01*
X70167Y-198633D01*
X69000Y-198519D01*
X67833Y-198633D01*
X66711Y-198974D01*
X65677Y-199527D01*
X64770Y-200270D01*
X64026Y-201177D01*
X63474Y-202211D01*
X63133Y-203333D01*
X63018Y-204500D01*
X63133Y-205667D01*
X63474Y-206789D01*
X64026Y-207823D01*
X64770Y-208730D01*
X65677Y-209473D01*
X66711Y-210026D01*
X66964Y-210103D01*
X67226Y-210304D01*
X68564Y-210858D01*
X70000Y-211048D01*
X89702D01*
X93166Y-214511D01*
X93466Y-215499D01*
X94069Y-216629D01*
X94882Y-217618D01*
X95871Y-218431D01*
X97000Y-219034D01*
X98226Y-219406D01*
X99500Y-219531D01*
X100774Y-219406D01*
X101999Y-219034D01*
X103129Y-218431D01*
X104118Y-217618D01*
X104931Y-216629D01*
X105534Y-215499D01*
X105906Y-214274D01*
X106031Y-213000D01*
X105906Y-211726D01*
X105534Y-210501D01*
X104931Y-209371D01*
X104118Y-208382D01*
X103129Y-207569D01*
X102531Y-207250D01*
Y-206750D01*
X103129Y-206431D01*
X104118Y-205618D01*
X104931Y-204629D01*
X105534Y-203500D01*
X105834Y-202511D01*
X111923Y-196423D01*
X111923Y-196423D01*
X112804Y-195274D01*
X113358Y-193936D01*
X113548Y-192500D01*
X113548Y-192500D01*
Y-173298D01*
X117923Y-168923D01*
X118804Y-167774D01*
X119358Y-166436D01*
X119464Y-165633D01*
X119981Y-165539D01*
X120236Y-166017D01*
X121024Y-166976D01*
X121357Y-167250D01*
Y-167750D01*
X121024Y-168024D01*
X120236Y-168983D01*
X119651Y-170077D01*
X119291Y-171265D01*
X119169Y-172500D01*
X119291Y-173735D01*
X119651Y-174923D01*
X120236Y-176017D01*
X121024Y-176976D01*
X121357Y-177250D01*
Y-177750D01*
X121024Y-178024D01*
X120236Y-178983D01*
X119651Y-180077D01*
X119291Y-181265D01*
X119169Y-182500D01*
X119291Y-183735D01*
X119651Y-184923D01*
X120236Y-186017D01*
X121024Y-186976D01*
X121357Y-187250D01*
Y-187750D01*
X121024Y-188024D01*
X120236Y-188983D01*
X119651Y-190077D01*
X119291Y-191265D01*
X119169Y-192500D01*
X119291Y-193735D01*
X119651Y-194923D01*
X120236Y-196017D01*
X121024Y-196976D01*
X121983Y-197764D01*
X123077Y-198349D01*
X123141Y-198890D01*
X122433Y-199433D01*
X121744Y-200331D01*
X121311Y-201378D01*
X121229Y-202000D01*
X129771D01*
X129689Y-201378D01*
X129256Y-200331D01*
X128567Y-199433D01*
X127859Y-198890D01*
X127923Y-198349D01*
X129017Y-197764D01*
X129976Y-196976D01*
X130764Y-196017D01*
X131349Y-194923D01*
X131709Y-193735D01*
X131831Y-192500D01*
X131709Y-191265D01*
X131349Y-190077D01*
X130764Y-188983D01*
X129976Y-188024D01*
X129643Y-187750D01*
Y-187250D01*
X129976Y-186976D01*
X130764Y-186017D01*
X131349Y-184923D01*
X131709Y-183735D01*
X131831Y-182500D01*
X131709Y-181265D01*
X131698Y-181229D01*
X132127Y-180972D01*
X134952Y-183798D01*
Y-216500D01*
X135142Y-217936D01*
X135696Y-219274D01*
X136577Y-220423D01*
X140577Y-224423D01*
X140577Y-224423D01*
X141726Y-225304D01*
X143064Y-225858D01*
X144500Y-226047D01*
X210246D01*
X210279Y-226548D01*
X209564Y-226642D01*
X208226Y-227196D01*
X207077Y-228077D01*
X202028Y-233127D01*
X201460Y-232987D01*
X201013Y-232151D01*
X200263Y-231237D01*
X199349Y-230487D01*
X198307Y-229930D01*
X197176Y-229587D01*
X196000Y-229471D01*
X194824Y-229587D01*
X193693Y-229930D01*
X192650Y-230487D01*
X191737Y-231237D01*
X190987Y-232151D01*
X190430Y-233193D01*
X190416Y-233239D01*
X177077Y-246577D01*
X132202Y-291453D01*
X109350D01*
X109307Y-291430D01*
X108176Y-291087D01*
X107000Y-290971D01*
X105824Y-291087D01*
X104693Y-291430D01*
X104650Y-291453D01*
X93298D01*
X90084Y-288239D01*
X90070Y-288193D01*
X89513Y-287151D01*
X88763Y-286237D01*
X87849Y-285487D01*
X86807Y-284930D01*
X85676Y-284587D01*
X84500Y-284471D01*
X83324Y-284587D01*
X82193Y-284930D01*
X81151Y-285487D01*
X80237Y-286237D01*
X79487Y-287151D01*
X78930Y-288193D01*
X78916Y-288239D01*
X52077Y-315077D01*
X51196Y-316226D01*
X50642Y-317564D01*
X50453Y-319000D01*
Y-330090D01*
X50138Y-330679D01*
X49545Y-330728D01*
X49209Y-330291D01*
X48269Y-329569D01*
X47175Y-329116D01*
X46500Y-329027D01*
Y-333500D01*
Y-337973D01*
X47175Y-337884D01*
X48269Y-337431D01*
X49209Y-336709D01*
X49545Y-336273D01*
X50138Y-336321D01*
X50569Y-337129D01*
X51382Y-338118D01*
X52371Y-338931D01*
X53500Y-339534D01*
X54726Y-339906D01*
X56000Y-340031D01*
X57274Y-339906D01*
X58499Y-339534D01*
X59629Y-338931D01*
X60618Y-338118D01*
X60750Y-337958D01*
X61250D01*
X61382Y-338118D01*
X62371Y-338931D01*
X63500Y-339534D01*
X64489Y-339834D01*
X97577Y-372923D01*
X98726Y-373804D01*
X100064Y-374358D01*
X101500Y-374548D01*
X225500D01*
X226936Y-374358D01*
X228274Y-373804D01*
X229423Y-372923D01*
X253423Y-348923D01*
X253423Y-348923D01*
X254304Y-347774D01*
X254858Y-346436D01*
X255047Y-345000D01*
X255047Y-345000D01*
Y-323500D01*
X338010D01*
Y-334500D01*
X378000D01*
Y-323500D01*
Y-313000D01*
Y-299002D01*
X278030D01*
Y-309502D01*
X255047D01*
Y-294548D01*
X324500D01*
X325936Y-294358D01*
X327274Y-293804D01*
X328423Y-292923D01*
X373923Y-247423D01*
X373923Y-247423D01*
X374804Y-246274D01*
X375358Y-244936D01*
X375548Y-243500D01*
X375548Y-243500D01*
Y-84500D01*
X375548Y-84500D01*
X375358Y-83064D01*
X374804Y-81726D01*
X373923Y-80577D01*
X373923Y-80577D01*
X366992Y-73646D01*
X366474Y-72677D01*
X365730Y-71770D01*
X364823Y-71026D01*
X363789Y-70474D01*
X363536Y-70397D01*
X363274Y-70196D01*
X361936Y-69642D01*
X360500Y-69453D01*
X333298D01*
X327445Y-63600D01*
X327399Y-63128D01*
X326998Y-61808D01*
X326348Y-60592D01*
X325474Y-59526D01*
X324408Y-58652D01*
X323192Y-58002D01*
X321872Y-57601D01*
X320500Y-57466D01*
D02*
G37*
G36*
X258500Y-54847D02*
X255079D01*
X255149Y-55378D01*
X255547Y-56340D01*
X256181Y-57166D01*
X257007Y-57799D01*
X257968Y-58197D01*
X258500Y-58267D01*
Y-54847D01*
D02*
G37*
G36*
X161500D02*
X158079D01*
X158149Y-55378D01*
X158547Y-56340D01*
X159181Y-57166D01*
X160007Y-57799D01*
X160968Y-58197D01*
X161500Y-58267D01*
Y-54847D01*
D02*
G37*
G36*
X75500Y-56802D02*
X74226Y-56927D01*
X73001Y-57299D01*
X71871Y-57903D01*
X70882Y-58715D01*
X70069Y-59705D01*
X69466Y-60834D01*
X69094Y-62059D01*
X68969Y-63333D01*
X69094Y-64608D01*
X69466Y-65833D01*
X70069Y-66962D01*
X70882Y-67952D01*
X71871Y-68764D01*
X73001Y-69368D01*
X73989Y-69667D01*
X80979Y-76657D01*
X80787Y-77119D01*
X78910D01*
X78000Y-76632D01*
X76774Y-76261D01*
X75500Y-76135D01*
X74226Y-76261D01*
X73001Y-76632D01*
X71871Y-77236D01*
X70882Y-78048D01*
X70069Y-79038D01*
X69466Y-80167D01*
X69094Y-81392D01*
X68969Y-82667D01*
X69094Y-83941D01*
X69466Y-85166D01*
X70069Y-86295D01*
X70882Y-87285D01*
X71871Y-88097D01*
X73001Y-88701D01*
X74226Y-89073D01*
X75500Y-89198D01*
X76774Y-89073D01*
X78000Y-88701D01*
X78910Y-88214D01*
X80453D01*
Y-101312D01*
X79953Y-101345D01*
X79884Y-100825D01*
X79431Y-99731D01*
X78709Y-98791D01*
X77769Y-98069D01*
X76675Y-97616D01*
X76000Y-97527D01*
Y-102000D01*
Y-106473D01*
X76675Y-106384D01*
X77769Y-105931D01*
X78709Y-105209D01*
X79431Y-104269D01*
X79884Y-103175D01*
X79953Y-102655D01*
X80453Y-102688D01*
Y-136202D01*
X68467Y-148188D01*
X68028Y-147919D01*
X67884Y-146825D01*
X67431Y-145731D01*
X66709Y-144791D01*
X65769Y-144069D01*
X64675Y-143616D01*
X64000Y-143527D01*
Y-148000D01*
X63500D01*
Y-148500D01*
X59027D01*
X59116Y-149175D01*
X59569Y-150269D01*
X60291Y-151209D01*
X60728Y-151545D01*
X60679Y-152138D01*
X59871Y-152569D01*
X58882Y-153382D01*
X58069Y-154371D01*
X57466Y-155500D01*
X57094Y-156726D01*
X56969Y-158000D01*
X57094Y-159274D01*
X57466Y-160500D01*
X58069Y-161629D01*
X58882Y-162618D01*
X59871Y-163431D01*
X61001Y-164034D01*
X62226Y-164406D01*
X63500Y-164531D01*
X64774Y-164406D01*
X66000Y-164034D01*
X67044Y-163476D01*
X67936Y-163358D01*
X69274Y-162804D01*
X70423Y-161923D01*
X89923Y-142423D01*
X89923Y-142423D01*
X90804Y-141274D01*
X91358Y-139936D01*
X91548Y-138500D01*
Y-84965D01*
X94964Y-81547D01*
X111781D01*
X112833Y-81867D01*
X114000Y-81982D01*
X115167Y-81867D01*
X116219Y-81547D01*
X159781D01*
X160833Y-81867D01*
X162000Y-81982D01*
X163167Y-81867D01*
X164219Y-81547D01*
X190500D01*
X191936Y-81358D01*
X193274Y-80804D01*
X194423Y-79923D01*
X201400Y-72945D01*
X201872Y-72899D01*
X203192Y-72499D01*
X204408Y-71848D01*
X205474Y-70974D01*
X206348Y-69908D01*
X206468Y-69683D01*
X207050Y-69655D01*
X207978Y-70367D01*
X209195Y-70871D01*
X210000Y-70977D01*
Y-66000D01*
Y-61023D01*
X209195Y-61129D01*
X207978Y-61633D01*
X207050Y-62345D01*
X206468Y-62317D01*
X206348Y-62092D01*
X205474Y-61026D01*
X204408Y-60151D01*
X203192Y-59501D01*
X201872Y-59101D01*
X200500Y-58966D01*
X199128Y-59101D01*
X197808Y-59501D01*
X196592Y-60151D01*
X195526Y-61026D01*
X194651Y-62092D01*
X194001Y-63308D01*
X193601Y-64628D01*
X193555Y-65100D01*
X188202Y-70452D01*
X164219D01*
X163167Y-70133D01*
X162000Y-70018D01*
X160833Y-70133D01*
X159781Y-70452D01*
X116219D01*
X115167Y-70133D01*
X114000Y-70018D01*
X112833Y-70133D01*
X111781Y-70452D01*
X92667D01*
X92667Y-70452D01*
X92667Y-70452D01*
X90465D01*
X81834Y-61822D01*
X81534Y-60834D01*
X80931Y-59705D01*
X80118Y-58715D01*
X79129Y-57903D01*
X78000Y-57299D01*
X76774Y-56927D01*
X75500Y-56802D01*
D02*
G37*
G36*
X122000Y-106079D02*
Y-109500D01*
X125421D01*
X125351Y-108968D01*
X124953Y-108007D01*
X124319Y-107181D01*
X123493Y-106547D01*
X122532Y-106149D01*
X122000Y-106079D01*
D02*
G37*
G36*
X121000D02*
X120468Y-106149D01*
X119507Y-106547D01*
X118681Y-107181D01*
X118047Y-108007D01*
X117649Y-108968D01*
X117579Y-109500D01*
X121000D01*
Y-106079D01*
D02*
G37*
G36*
X75000Y-97527D02*
X74325Y-97616D01*
X73231Y-98069D01*
X72291Y-98791D01*
X71569Y-99731D01*
X71116Y-100825D01*
X71027Y-101500D01*
X75000D01*
Y-97527D01*
D02*
G37*
G36*
Y-102500D02*
X71027D01*
X71116Y-103175D01*
X71569Y-104269D01*
X72291Y-105209D01*
X73231Y-105931D01*
X74325Y-106384D01*
X75000Y-106473D01*
Y-102500D01*
D02*
G37*
%LPD*%
D10*
X370001Y-324502D02*
X374000D01*
Y-327501D01*
X372001Y-326501D01*
X371001D01*
X370001Y-327501D01*
Y-329500D01*
X371001Y-330500D01*
X373000D01*
X374000Y-329500D01*
X368002Y-330500D02*
Y-329500D01*
X367002D01*
Y-330500D01*
X368002D01*
X359005D02*
X363004D01*
X359005Y-326501D01*
Y-325502D01*
X360004Y-324502D01*
X362004D01*
X363004Y-325502D01*
X357006D02*
X356006Y-324502D01*
X354007D01*
X353007Y-325502D01*
Y-329500D01*
X354007Y-330500D01*
X356006D01*
X357006Y-329500D01*
Y-325502D01*
X351007Y-330500D02*
X349008D01*
X350008D01*
Y-324502D01*
X351007Y-325502D01*
X346009Y-329500D02*
X345009Y-330500D01*
X343010D01*
X342010Y-329500D01*
Y-325502D01*
X343010Y-324502D01*
X345009D01*
X346009Y-325502D01*
Y-326501D01*
X345009Y-327501D01*
X342010D01*
X374000Y-313502D02*
Y-319500D01*
X370001D01*
X368002Y-315501D02*
Y-318500D01*
X367002Y-319500D01*
X364003D01*
Y-315501D01*
X358005D02*
X361004D01*
X362004Y-316501D01*
Y-318500D01*
X361004Y-319500D01*
X358005D01*
X355006Y-315501D02*
X353007D01*
X352007Y-316501D01*
Y-319500D01*
X355006D01*
X356006Y-318500D01*
X355006Y-317501D01*
X352007D01*
X350008Y-319500D02*
X347009D01*
X346009Y-318500D01*
X347009Y-317501D01*
X349008D01*
X350008Y-316501D01*
X349008Y-315501D01*
X346009D01*
X338012Y-319500D02*
Y-313502D01*
X335013D01*
X334013Y-314502D01*
Y-316501D01*
X335013Y-317501D01*
X338012D01*
X331014Y-315501D02*
X329015D01*
X328015Y-316501D01*
Y-319500D01*
X331014D01*
X332014Y-318500D01*
X331014Y-317501D01*
X328015D01*
X326015Y-319500D02*
X324016D01*
X325016D01*
Y-315501D01*
X326015D01*
X321017D02*
X319018Y-319500D01*
X317018Y-315501D01*
X314019D02*
X312020D01*
X311020Y-316501D01*
Y-319500D01*
X314019D01*
X315019Y-318500D01*
X314019Y-317501D01*
X311020D01*
X299024Y-313502D02*
Y-319500D01*
X302023D01*
X303023Y-318500D01*
Y-316501D01*
X302023Y-315501D01*
X299024D01*
X296025D02*
X294026D01*
X293026Y-316501D01*
Y-319500D01*
X296025D01*
X297025Y-318500D01*
X296025Y-317501D01*
X293026D01*
X281030Y-314502D02*
X282030Y-313502D01*
X284029D01*
X285029Y-314502D01*
Y-315501D01*
X284029Y-316501D01*
X282030D01*
X281030Y-317501D01*
Y-318500D01*
X282030Y-319500D01*
X284029D01*
X285029Y-318500D01*
X279031Y-319500D02*
X277031D01*
X278031D01*
Y-315501D01*
X279031D01*
X274032Y-319500D02*
X272033D01*
X273033D01*
Y-313502D01*
X274032D01*
X269034Y-315501D02*
X267035Y-319500D01*
X265035Y-315501D01*
X262036D02*
X260037D01*
X259037Y-316501D01*
Y-319500D01*
X262036D01*
X263036Y-318500D01*
X262036Y-317501D01*
X259037D01*
X370001Y-304002D02*
X371001Y-303002D01*
X373000D01*
X374000Y-304002D01*
Y-305001D01*
X373000Y-306001D01*
X371001D01*
X370001Y-307001D01*
Y-308000D01*
X371001Y-309000D01*
X373000D01*
X374000Y-308000D01*
X364003Y-304002D02*
X365003Y-303002D01*
X367002D01*
X368002Y-304002D01*
Y-305001D01*
X367002Y-306001D01*
X365003D01*
X364003Y-307001D01*
Y-308000D01*
X365003Y-309000D01*
X367002D01*
X368002Y-308000D01*
X362004Y-303002D02*
X358005D01*
X360004D01*
Y-309000D01*
X352007Y-304002D02*
X353007Y-303002D01*
X355006D01*
X356006Y-304002D01*
Y-308000D01*
X355006Y-309000D01*
X353007D01*
X352007Y-308000D01*
X344010Y-303002D02*
Y-309000D01*
X341011D01*
X340011Y-308000D01*
Y-304002D01*
X341011Y-303002D01*
X344010D01*
X338012Y-305001D02*
Y-309000D01*
Y-307001D01*
X337012Y-306001D01*
X336012Y-305001D01*
X335013D01*
X332014Y-309000D02*
X330014D01*
X331014D01*
Y-305001D01*
X332014D01*
X327015D02*
X325016Y-309000D01*
X323017Y-305001D01*
X318018Y-309000D02*
X320018D01*
X321017Y-308000D01*
Y-306001D01*
X320018Y-305001D01*
X318018D01*
X317018Y-306001D01*
Y-307001D01*
X321017D01*
X315019Y-305001D02*
Y-309000D01*
Y-307001D01*
X314019Y-306001D01*
X313020Y-305001D01*
X312020D01*
X303023Y-303002D02*
Y-307001D01*
X301024Y-309000D01*
X299024Y-307001D01*
Y-303002D01*
X293026Y-309000D02*
X297025D01*
X293026Y-305001D01*
Y-304002D01*
X294026Y-303002D01*
X296025D01*
X297025Y-304002D01*
X291027Y-309000D02*
Y-308000D01*
X290027D01*
Y-309000D01*
X291027D01*
X286029Y-304002D02*
X285029Y-303002D01*
X283029D01*
X282030Y-304002D01*
Y-308000D01*
X283029Y-309000D01*
X285029D01*
X286029Y-308000D01*
Y-304002D01*
D11*
X99500Y-161000D02*
D03*
Y-201000D02*
D03*
Y-213000D02*
D03*
Y-253000D02*
D03*
X204500Y-327000D02*
D03*
Y-337000D02*
D03*
X66000Y-333500D02*
D03*
X56000D02*
D03*
X46000D02*
D03*
X35500Y-102000D02*
D03*
X75500D02*
D03*
X156500Y-328000D02*
D03*
Y-338000D02*
D03*
X35500Y-44000D02*
D03*
X75500D02*
D03*
Y-82667D02*
D03*
X35500D02*
D03*
X75500Y-63333D02*
D03*
X35500D02*
D03*
X63500Y-148000D02*
D03*
Y-158000D02*
D03*
D12*
X207000Y-168500D02*
D03*
Y-129000D02*
D03*
X84500Y-290500D02*
D03*
X44500D02*
D03*
X107000Y-337000D02*
D03*
Y-297000D02*
D03*
X240000Y-279500D02*
D03*
X200000D02*
D03*
X241000Y-101000D02*
D03*
X280000D02*
D03*
X196000Y-196000D02*
D03*
Y-235500D02*
D03*
D13*
X25500Y-239500D02*
D03*
Y-219815D02*
D03*
X341500Y-214685D02*
D03*
Y-195000D02*
D03*
X25500Y-142500D02*
D03*
Y-162185D02*
D03*
D14*
X69000Y-243870D02*
D03*
Y-204500D02*
D03*
X274000Y-168870D02*
D03*
Y-129500D02*
D03*
Y-244870D02*
D03*
Y-205500D02*
D03*
X121500Y-110000D02*
D03*
X160870D02*
D03*
X307630Y-142500D02*
D03*
X347000D02*
D03*
X259000Y-54347D02*
D03*
Y-76000D02*
D03*
X361500Y-54347D02*
D03*
Y-76000D02*
D03*
X114000Y-54347D02*
D03*
Y-76000D02*
D03*
X162000Y-54347D02*
D03*
Y-76000D02*
D03*
D15*
X125500Y-142500D02*
D03*
X220500Y-212000D02*
D03*
X222500Y-133500D02*
D03*
D16*
X125500Y-152500D02*
D03*
Y-162500D02*
D03*
Y-172500D02*
D03*
Y-182500D02*
D03*
Y-192500D02*
D03*
Y-202500D02*
D03*
X155500D02*
D03*
Y-192500D02*
D03*
Y-182500D02*
D03*
Y-172500D02*
D03*
Y-162500D02*
D03*
Y-152500D02*
D03*
Y-142500D02*
D03*
X220500Y-222000D02*
D03*
Y-232000D02*
D03*
Y-242000D02*
D03*
X250500D02*
D03*
Y-232000D02*
D03*
Y-222000D02*
D03*
Y-212000D02*
D03*
X222500Y-143500D02*
D03*
Y-153500D02*
D03*
Y-163500D02*
D03*
X252500D02*
D03*
Y-153500D02*
D03*
Y-143500D02*
D03*
Y-133500D02*
D03*
D17*
X220500Y-66000D02*
D03*
X210500D02*
D03*
X200500D02*
D03*
X320500Y-64500D02*
D03*
X310500D02*
D03*
X300500D02*
D03*
D18*
X20500Y-367500D02*
D03*
X372500D02*
D03*
Y-19500D02*
D03*
X20500D02*
D03*
D19*
X288000Y-335500D02*
D03*
X313500D02*
D03*
D20*
X92667Y-76000D02*
X114000D01*
X88167D02*
X92667D01*
X86000Y-82667D02*
X92667Y-76000D01*
X236000Y-212000D02*
X250500D01*
X220500D02*
X236000D01*
X207000Y-183000D02*
X236000Y-212000D01*
X207000Y-183000D02*
Y-168500D01*
X218500Y-117500D02*
X246500D01*
X207000Y-129000D02*
X218500Y-117500D01*
X255000Y-123000D02*
Y-109000D01*
Y-80000D01*
X246500Y-117500D02*
X255000Y-109000D01*
X199000Y-153500D02*
X222500D01*
X192000Y-160500D02*
X199000Y-153500D01*
X192000Y-192000D02*
Y-160500D01*
Y-192000D02*
X196000Y-196000D01*
X327500Y-111500D02*
X343500D01*
X276500D02*
X327500D01*
Y-145500D02*
Y-111500D01*
X303500Y-169500D02*
X327500Y-145500D01*
X274630Y-169500D02*
X303500D01*
X359500Y-220000D02*
Y-127500D01*
X313500Y-266000D02*
X359500Y-220000D01*
X343500Y-111500D02*
X359500Y-127500D01*
X222500Y-163500D02*
X252500D01*
X192500Y-250500D02*
X211000Y-232000D01*
X181000Y-250500D02*
X192500D01*
X211000Y-232000D02*
X220500D01*
X181000Y-250500D02*
X196000Y-235500D01*
X134500Y-297000D02*
X181000Y-250500D01*
X107000Y-297000D02*
X134500D01*
X219000Y-222000D02*
X220500D01*
X217500Y-220500D02*
X219000Y-222000D01*
X159000Y-220500D02*
X217500D01*
X159000D02*
X166500Y-213000D01*
X140500Y-216500D02*
X144500Y-220500D01*
X159000D01*
X140500Y-216500D02*
Y-181500D01*
X131500Y-172500D02*
X140500Y-181500D01*
X15500Y-132500D02*
X25500Y-142500D01*
X15500Y-132500D02*
Y-83333D01*
X35500Y-63333D01*
X25500Y-162185D02*
X42000Y-145685D01*
Y-108500D01*
X35500Y-102000D02*
X42000Y-108500D01*
X35500Y-102000D02*
Y-82667D01*
X59500Y-60000D02*
X75500Y-44000D01*
X59500Y-86000D02*
Y-60000D01*
Y-86000D02*
X75500Y-102000D01*
Y-44000D02*
X103654D01*
X114000Y-54347D01*
X162000D01*
X75500Y-63333D02*
X88167Y-76000D01*
X114000D02*
X162000D01*
X220500Y-66000D02*
X230500Y-76000D01*
X259000D01*
X75500Y-82667D02*
X86000D01*
X162000Y-76000D02*
X190500D01*
X200500Y-66000D01*
X162000Y-54347D02*
X200867D01*
X209000Y-62479D01*
Y-64500D02*
Y-62479D01*
Y-64500D02*
X210500Y-66000D01*
X220133Y-54347D02*
X259000D01*
X212000Y-62479D02*
X220133Y-54347D01*
X212000Y-64500D02*
Y-62479D01*
X210500Y-66000D02*
X212000Y-64500D01*
X259000Y-54347D02*
X302367D01*
X309000Y-60979D01*
Y-63000D02*
Y-60979D01*
Y-63000D02*
X310500Y-64500D01*
X259000Y-76000D02*
X289000D01*
X300500Y-64500D01*
X320500D02*
X331000Y-75000D01*
X360500D01*
X361500Y-76000D01*
X318633Y-54347D02*
X361500D01*
X312000Y-60979D02*
X318633Y-54347D01*
X312000Y-63000D02*
Y-60979D01*
X310500Y-64500D02*
X312000Y-63000D01*
X252500Y-133500D02*
X259000Y-127000D01*
X222500Y-133500D02*
X252500D01*
Y-143500D02*
X253000Y-144000D01*
X279315Y-214685D02*
X341500D01*
X272000Y-222000D02*
X279315Y-214685D01*
X250500Y-232000D02*
X260500Y-222000D01*
X250500D02*
X260500D01*
X272000D01*
X171500Y-308000D02*
X200000Y-279500D01*
X171500Y-332500D02*
Y-308000D01*
X166000Y-338000D02*
X171500Y-332500D01*
X156500Y-338000D02*
X166000D01*
X107000Y-337000D02*
X118500Y-348500D01*
X25500Y-239500D02*
X64630D01*
X69000Y-243870D01*
X92000Y-205500D02*
X99500Y-213000D01*
X70000Y-205500D02*
X92000D01*
X69000Y-204500D02*
X70000Y-205500D01*
X96500Y-201000D02*
X99500D01*
X92000Y-205500D02*
X96500Y-201000D01*
X99500D02*
X108000Y-192500D01*
Y-171000D01*
X118500Y-142500D02*
X125500D01*
X84500Y-290500D02*
X91000Y-297000D01*
X107000D01*
X56000Y-333500D02*
Y-319000D01*
X84500Y-290500D01*
X46000Y-333500D02*
Y-292000D01*
X44500Y-290500D02*
X46000Y-292000D01*
X99500Y-256500D02*
Y-253000D01*
X78000Y-278000D02*
X99500Y-256500D01*
X57000Y-278000D02*
X78000D01*
X44500Y-290500D02*
X57000Y-278000D01*
X125500Y-152500D02*
X126500D01*
X125500Y-162500D02*
Y-152500D01*
X154000Y-141000D02*
Y-116870D01*
Y-141000D02*
X155500Y-142500D01*
X125500Y-172500D02*
X131500D01*
X166500Y-213000D02*
Y-170500D01*
X193500Y-143500D01*
X222500D01*
X280000Y-101000D02*
X305000D01*
X331000Y-75000D01*
X169870Y-101000D02*
X241000D01*
X160870Y-110000D02*
X169870Y-101000D01*
X151870Y-119000D02*
X154000Y-116870D01*
X160870Y-110000D01*
X99500Y-253000D02*
X125500Y-227000D01*
Y-202500D01*
X99500Y-253000D02*
Y-238000D01*
X81315Y-219815D02*
X99500Y-238000D01*
X252500Y-163500D02*
X268630D01*
X274000Y-168870D01*
X253370Y-244870D02*
X273500D01*
X250500Y-242000D02*
X253370Y-244870D01*
X250500Y-212000D02*
X267000D01*
X273500Y-205500D01*
X306630Y-143500D02*
X307630Y-142500D01*
X252500Y-153500D02*
X256000D01*
X266000Y-143500D01*
X252500D02*
X266000D01*
X306630D01*
X261500Y-129500D02*
X274000D01*
X347000Y-189500D02*
Y-142500D01*
X341500Y-195000D02*
X347000Y-189500D01*
X220500Y-242000D02*
X234500D01*
X250500D01*
X66000Y-333500D02*
X101500Y-369000D01*
X204500Y-327000D02*
X206500Y-329000D01*
X207814D01*
X113500Y-359000D02*
X200000D01*
X86500Y-332000D02*
X113500Y-359000D01*
X86500Y-332000D02*
Y-318500D01*
X93000Y-312000D01*
X140500D01*
X156500Y-328000D01*
X361500Y-76000D02*
X370000Y-84500D01*
Y-243500D02*
Y-84500D01*
X249500Y-289000D02*
X324500D01*
X370000Y-243500D01*
X240000Y-279500D02*
X249500Y-289000D01*
X234500Y-266000D02*
X313500D01*
X234500D02*
Y-242000D01*
X255000Y-80000D02*
X259000Y-76000D01*
X255000Y-123000D02*
X259000Y-127000D01*
X261500Y-129500D01*
X266000Y-101000D02*
X276500Y-111500D01*
X266000Y-101000D02*
X266500Y-100500D01*
Y-93500D01*
X272000Y-88000D01*
X297500D01*
X310500Y-75000D01*
Y-64500D01*
X61500Y-150000D02*
X63500Y-148000D01*
X44500Y-162000D02*
X52578Y-153922D01*
X43000Y-219815D02*
X44500Y-218315D01*
X25500Y-219815D02*
X43000D01*
X81315D01*
X99500Y-161000D02*
X103000Y-157500D01*
X44500Y-218315D02*
Y-180000D01*
X274000Y-168870D02*
X274630Y-169500D01*
X63500Y-148000D02*
Y-114000D01*
X75500Y-102000D01*
X63500Y-158000D02*
X66500D01*
X86000Y-138500D01*
Y-82667D01*
X93500Y-138000D02*
X121500Y-110000D01*
X103000Y-157500D02*
Y-146000D01*
X130000Y-119000D01*
X151870D01*
X108000Y-171000D02*
X114000Y-165000D01*
Y-147000D01*
X118500Y-142500D01*
X35500Y-63333D02*
Y-44000D01*
X204500Y-296000D02*
X234500Y-266000D01*
X101500Y-369000D02*
X225500D01*
X249500Y-345000D01*
Y-289000D01*
X207814Y-329000D02*
X212500Y-333686D01*
Y-340814D02*
Y-333686D01*
X212000Y-341314D02*
X212500Y-340814D01*
X200000Y-359000D02*
X212000Y-347000D01*
Y-341314D01*
X204500Y-327000D02*
Y-296000D01*
X118500Y-348500D02*
X193000D01*
X204500Y-337000D01*
X44500Y-180000D02*
Y-162000D01*
X60186Y-150000D02*
X61500D01*
X52578Y-153922D02*
X56265D01*
X60186Y-150000D01*
X93500Y-145500D02*
Y-138000D01*
X44500Y-180000D02*
X59000D01*
X93500Y-145500D01*
D21*
X300750Y-335500D02*
D03*
D22*
Y-351500D02*
D03*
D23*
X300500Y-369250D02*
D03*
M02*
