G04 Layer_Color=65535*
%FSLAX25Y25*%
%MOIN*%
G70*
G01*
G75*
%ADD10C,0.01000*%
%ADD24C,0.00600*%
%ADD25C,0.00000*%
%ADD26C,0.00787*%
D10*
X214512Y-332000D02*
G03*
X214512Y-332000I-10012J0D01*
G01*
X166513Y-333000D02*
G03*
X166513Y-333000I-10012J0D01*
G01*
X99500Y-170500D02*
Y-166000D01*
X96000Y-175833D02*
X103000D01*
X99500Y-191500D02*
X103000D01*
Y-183250D02*
Y-178750D01*
X96000Y-171000D02*
X103000D01*
X96000Y-191500D02*
Y-171000D01*
X103000Y-191500D02*
Y-183250D01*
Y-178750D02*
Y-171000D01*
X96000Y-191500D02*
X99500D01*
Y-196000D02*
Y-191500D01*
Y-222500D02*
Y-218000D01*
X96000Y-227833D02*
X103000D01*
X99500Y-243500D02*
X103000D01*
Y-235250D02*
Y-230750D01*
X96000Y-223000D02*
X103000D01*
X96000Y-243500D02*
Y-223000D01*
X103000Y-243500D02*
Y-235250D01*
Y-230750D02*
Y-223000D01*
X96000Y-243500D02*
X99500D01*
Y-248000D02*
Y-243500D01*
X51500Y-294500D02*
X59000D01*
X51500D02*
Y-290500D01*
X59000Y-294500D02*
X77500D01*
X48500Y-290500D02*
X51500D01*
X78000D02*
X80500D01*
X77500Y-294500D02*
Y-287000D01*
X51500D02*
X77500D01*
X51500Y-290500D02*
Y-287000D01*
X103000Y-311500D02*
Y-304000D01*
X107000D01*
X103000Y-330000D02*
Y-311500D01*
X107000Y-304000D02*
Y-301000D01*
Y-333000D02*
Y-330500D01*
X103000Y-330000D02*
X110500D01*
Y-304000D01*
X107000D02*
X110500D01*
X198500Y-336000D02*
Y-333000D01*
X197000Y-334500D02*
X200000D01*
X41000Y-338500D02*
Y-328500D01*
Y-338500D02*
X71500D01*
Y-328500D01*
X41000D02*
X71500D01*
X40500Y-102000D02*
X45000D01*
X50333Y-105500D02*
Y-98500D01*
X66000Y-102000D02*
Y-98500D01*
X53250D02*
X57750D01*
X45500Y-105500D02*
Y-98500D01*
Y-105500D02*
X66000D01*
X57750Y-98500D02*
X66000D01*
X45500D02*
X53250D01*
X66000Y-105500D02*
Y-102000D01*
X70500D01*
X150500Y-337000D02*
Y-334000D01*
X149000Y-335500D02*
X152000D01*
X40500Y-44000D02*
X45000D01*
X50333Y-47500D02*
Y-40500D01*
X66000Y-44000D02*
Y-40500D01*
X53250D02*
X57750D01*
X45500Y-47500D02*
Y-40500D01*
Y-47500D02*
X66000D01*
X57750Y-40500D02*
X66000D01*
X45500D02*
X53250D01*
X66000Y-47500D02*
Y-44000D01*
X70500D01*
X207000Y-283500D02*
X214500D01*
X207000D02*
Y-279500D01*
X214500Y-283500D02*
X233000D01*
X204000Y-279500D02*
X207000D01*
X233500D02*
X236000D01*
X233000Y-283500D02*
Y-276000D01*
X207000D02*
X233000D01*
X207000Y-279500D02*
Y-276000D01*
X66000Y-82667D02*
X70500D01*
X60667Y-86167D02*
Y-79167D01*
X45000Y-86167D02*
Y-82667D01*
X53250Y-86167D02*
X57750D01*
X65500D02*
Y-79167D01*
X45000D02*
X65500D01*
X45000Y-86167D02*
X53250D01*
X57750D02*
X65500D01*
X45000Y-82667D02*
Y-79167D01*
X40500Y-82667D02*
X45000D01*
X193000Y-58500D02*
X228000D01*
Y-73500D02*
Y-58500D01*
X193000Y-73500D02*
X228000D01*
X193000D02*
Y-58500D01*
X293000Y-57000D02*
X328000D01*
Y-72000D02*
Y-57000D01*
X293000Y-72000D02*
X328000D01*
X293000D02*
Y-57000D01*
X66000Y-63333D02*
X70500D01*
X60667Y-66833D02*
Y-59833D01*
X45000Y-66833D02*
Y-63333D01*
X53250Y-66833D02*
X57750D01*
X65500D02*
Y-59833D01*
X45000D02*
X65500D01*
X45000Y-66833D02*
X53250D01*
X57750D02*
X65500D01*
X45000Y-63333D02*
Y-59833D01*
X40500Y-63333D02*
X45000D01*
X57500Y-165500D02*
Y-141500D01*
X69500D01*
Y-165500D02*
Y-141500D01*
X57500Y-165500D02*
X69500D01*
X101500Y-148502D02*
Y-154500D01*
X104499D01*
X105499Y-153500D01*
Y-149502D01*
X104499Y-148502D01*
X101500D01*
X111497D02*
X109497Y-149502D01*
X107498Y-151501D01*
Y-153500D01*
X108498Y-154500D01*
X110497D01*
X111497Y-153500D01*
Y-152501D01*
X110497Y-151501D01*
X107498D01*
X109000Y-218502D02*
Y-224500D01*
X111999D01*
X112999Y-223500D01*
Y-219502D01*
X111999Y-218502D01*
X109000D01*
X114998D02*
X118997D01*
Y-219502D01*
X114998Y-223500D01*
Y-224500D01*
X268799Y-113472D02*
X267799Y-112472D01*
X265800D01*
X264800Y-113472D01*
Y-117470D01*
X265800Y-118470D01*
X267799D01*
X268799Y-117470D01*
X270798Y-118470D02*
X272797D01*
X271798D01*
Y-112472D01*
X270798Y-113472D01*
X268799Y-189502D02*
X267799Y-188502D01*
X265800D01*
X264800Y-189502D01*
Y-193500D01*
X265800Y-194500D01*
X267799D01*
X268799Y-193500D01*
X274797Y-194500D02*
X270798D01*
X274797Y-190501D01*
Y-189502D01*
X273797Y-188502D01*
X271798D01*
X270798Y-189502D01*
X118599Y-91802D02*
X117599Y-90802D01*
X115600D01*
X114600Y-91802D01*
Y-95800D01*
X115600Y-96800D01*
X117599D01*
X118599Y-95800D01*
X120598Y-91802D02*
X121598Y-90802D01*
X123597D01*
X124597Y-91802D01*
Y-92801D01*
X123597Y-93801D01*
X122597D01*
X123597D01*
X124597Y-94801D01*
Y-95800D01*
X123597Y-96800D01*
X121598D01*
X120598Y-95800D01*
X98899Y-37048D02*
X97899Y-36048D01*
X95900D01*
X94900Y-37048D01*
Y-41047D01*
X95900Y-42046D01*
X97899D01*
X98899Y-41047D01*
X103897Y-42046D02*
Y-36048D01*
X100898Y-39047D01*
X104897D01*
X146899Y-37102D02*
X145899Y-36102D01*
X143900D01*
X142900Y-37102D01*
Y-41100D01*
X143900Y-42100D01*
X145899D01*
X146899Y-41100D01*
X152897Y-36102D02*
X148898D01*
Y-39101D01*
X150897Y-38101D01*
X151897D01*
X152897Y-39101D01*
Y-41100D01*
X151897Y-42100D01*
X149898D01*
X148898Y-41100D01*
X243899Y-37048D02*
X242899Y-36048D01*
X240900D01*
X239900Y-37048D01*
Y-41047D01*
X240900Y-42046D01*
X242899D01*
X243899Y-41047D01*
X249897Y-36048D02*
X247897Y-37048D01*
X245898Y-39047D01*
Y-41047D01*
X246898Y-42046D01*
X248897D01*
X249897Y-41047D01*
Y-40047D01*
X248897Y-39047D01*
X245898D01*
X346399Y-37048D02*
X345399Y-36048D01*
X343400D01*
X342400Y-37048D01*
Y-41047D01*
X343400Y-42046D01*
X345399D01*
X346399Y-41047D01*
X348398Y-36048D02*
X352397D01*
Y-37048D01*
X348398Y-41047D01*
Y-42046D01*
X304699Y-124302D02*
X303699Y-123302D01*
X301700D01*
X300700Y-124302D01*
Y-128300D01*
X301700Y-129300D01*
X303699D01*
X304699Y-128300D01*
X306698Y-124302D02*
X307698Y-123302D01*
X309697D01*
X310697Y-124302D01*
Y-125301D01*
X309697Y-126301D01*
X310697Y-127301D01*
Y-128300D01*
X309697Y-129300D01*
X307698D01*
X306698Y-128300D01*
Y-127301D01*
X307698Y-126301D01*
X306698Y-125301D01*
Y-124302D01*
X307698Y-126301D02*
X309697D01*
X63799Y-188472D02*
X62799Y-187472D01*
X60800D01*
X59800Y-188472D01*
Y-192470D01*
X60800Y-193470D01*
X62799D01*
X63799Y-192470D01*
X65798D02*
X66798Y-193470D01*
X68797D01*
X69797Y-192470D01*
Y-188472D01*
X68797Y-187472D01*
X66798D01*
X65798Y-188472D01*
Y-189471D01*
X66798Y-190471D01*
X69797D01*
X32600Y-50335D02*
Y-56333D01*
X35599D01*
X36599Y-55334D01*
Y-51335D01*
X35599Y-50335D01*
X32600D01*
X38598Y-56333D02*
X40597D01*
X39598D01*
Y-50335D01*
X38598Y-51335D01*
X32600Y-69669D02*
Y-75667D01*
X35599D01*
X36599Y-74667D01*
Y-70668D01*
X35599Y-69669D01*
X32600D01*
X42597Y-75667D02*
X38598D01*
X42597Y-71668D01*
Y-70668D01*
X41597Y-69669D01*
X39598D01*
X38598Y-70668D01*
X32600Y-31002D02*
Y-37000D01*
X35599D01*
X36599Y-36000D01*
Y-32002D01*
X35599Y-31002D01*
X32600D01*
X38598Y-32002D02*
X39598Y-31002D01*
X41597D01*
X42597Y-32002D01*
Y-33001D01*
X41597Y-34001D01*
X40597D01*
X41597D01*
X42597Y-35001D01*
Y-36000D01*
X41597Y-37000D01*
X39598D01*
X38598Y-36000D01*
X147000Y-313502D02*
Y-319500D01*
X149999D01*
X150999Y-318500D01*
Y-314502D01*
X149999Y-313502D01*
X147000D01*
X155997Y-319500D02*
Y-313502D01*
X152998Y-316501D01*
X156997D01*
X32600Y-89002D02*
Y-95000D01*
X35599D01*
X36599Y-94000D01*
Y-90002D01*
X35599Y-89002D01*
X32600D01*
X42597D02*
X38598D01*
Y-92001D01*
X40597Y-91001D01*
X41597D01*
X42597Y-92001D01*
Y-94000D01*
X41597Y-95000D01*
X39598D01*
X38598Y-94000D01*
X195000Y-312502D02*
Y-318500D01*
X197999D01*
X198999Y-317500D01*
Y-313502D01*
X197999Y-312502D01*
X195000D01*
X200998Y-313502D02*
X201998Y-312502D01*
X203997D01*
X204997Y-313502D01*
Y-314501D01*
X203997Y-315501D01*
X204997Y-316501D01*
Y-317500D01*
X203997Y-318500D01*
X201998D01*
X200998Y-317500D01*
Y-316501D01*
X201998Y-315501D01*
X200998Y-314501D01*
Y-313502D01*
X201998Y-315501D02*
X203997D01*
X41500Y-325000D02*
Y-319002D01*
X44499D01*
X45499Y-320002D01*
Y-322001D01*
X44499Y-323001D01*
X41500D01*
X47498Y-319002D02*
Y-325000D01*
Y-322001D01*
X51497D01*
Y-319002D01*
Y-325000D01*
X57495D02*
X53496D01*
X57495Y-321001D01*
Y-320002D01*
X56495Y-319002D01*
X54496D01*
X53496Y-320002D01*
X197600Y-272500D02*
Y-266502D01*
X200599D01*
X201599Y-267502D01*
Y-269501D01*
X200599Y-270501D01*
X197600D01*
X199599D02*
X201599Y-272500D01*
X203598D02*
X205597D01*
X204598D01*
Y-266502D01*
X203598Y-267502D01*
X103500Y-290600D02*
Y-284602D01*
X106499D01*
X107499Y-285602D01*
Y-287601D01*
X106499Y-288601D01*
X103500D01*
X105499D02*
X107499Y-290600D01*
X113497D02*
X109498D01*
X113497Y-286601D01*
Y-285602D01*
X112497Y-284602D01*
X110498D01*
X109498Y-285602D01*
X42100Y-283500D02*
Y-277502D01*
X45099D01*
X46099Y-278502D01*
Y-280501D01*
X45099Y-281501D01*
X42100D01*
X44099D02*
X46099Y-283500D01*
X48098Y-278502D02*
X49098Y-277502D01*
X51097D01*
X52097Y-278502D01*
Y-279501D01*
X51097Y-280501D01*
X50097D01*
X51097D01*
X52097Y-281501D01*
Y-282500D01*
X51097Y-283500D01*
X49098D01*
X48098Y-282500D01*
X337200Y-180687D02*
X341199D01*
X339199D01*
Y-186685D01*
X343198Y-180687D02*
Y-186685D01*
X346197D01*
X347197Y-185685D01*
Y-184686D01*
X346197Y-183686D01*
X343198D01*
X346197D01*
X347197Y-182686D01*
Y-181687D01*
X346197Y-180687D01*
X343198D01*
X349196Y-186685D02*
X351196D01*
X350196D01*
Y-180687D01*
X349196Y-181687D01*
X21150Y-128137D02*
X25149D01*
X23149D01*
Y-134135D01*
X27148Y-128137D02*
Y-134135D01*
X30147D01*
X31147Y-133135D01*
Y-132136D01*
X30147Y-131136D01*
X27148D01*
X30147D01*
X31147Y-130136D01*
Y-129137D01*
X30147Y-128137D01*
X27148D01*
X37145Y-134135D02*
X33146D01*
X37145Y-130136D01*
Y-129137D01*
X36145Y-128137D01*
X34146D01*
X33146Y-129137D01*
X21200Y-205502D02*
X25199D01*
X23199D01*
Y-211500D01*
X27198Y-205502D02*
Y-211500D01*
X30197D01*
X31197Y-210500D01*
Y-209501D01*
X30197Y-208501D01*
X27198D01*
X30197D01*
X31197Y-207501D01*
Y-206502D01*
X30197Y-205502D01*
X27198D01*
X33196Y-206502D02*
X34196Y-205502D01*
X36195D01*
X37195Y-206502D01*
Y-207501D01*
X36195Y-208501D01*
X35195D01*
X36195D01*
X37195Y-209501D01*
Y-210500D01*
X36195Y-211500D01*
X34196D01*
X33196Y-210500D01*
X193500Y-49002D02*
Y-54000D01*
X194500Y-55000D01*
X196499D01*
X197499Y-54000D01*
Y-49002D01*
X199498Y-55000D02*
X201497D01*
X200498D01*
Y-49002D01*
X199498Y-50002D01*
X293500Y-47502D02*
Y-52500D01*
X294500Y-53500D01*
X296499D01*
X297499Y-52500D01*
Y-47502D01*
X303497Y-53500D02*
X299498D01*
X303497Y-49501D01*
Y-48502D01*
X302497Y-47502D01*
X300498D01*
X299498Y-48502D01*
X122800Y-124702D02*
Y-129700D01*
X123800Y-130700D01*
X125799D01*
X126799Y-129700D01*
Y-124702D01*
X128798Y-125702D02*
X129798Y-124702D01*
X131797D01*
X132797Y-125702D01*
Y-126701D01*
X131797Y-127701D01*
X130797D01*
X131797D01*
X132797Y-128701D01*
Y-129700D01*
X131797Y-130700D01*
X129798D01*
X128798Y-129700D01*
X219750Y-119252D02*
Y-124250D01*
X220750Y-125250D01*
X222749D01*
X223749Y-124250D01*
Y-119252D01*
X228747Y-125250D02*
Y-119252D01*
X225748Y-122251D01*
X229747D01*
X217750Y-197752D02*
Y-202750D01*
X218750Y-203750D01*
X220749D01*
X221749Y-202750D01*
Y-197752D01*
X227747D02*
X223748D01*
Y-200751D01*
X225747Y-199751D01*
X226747D01*
X227747Y-200751D01*
Y-202750D01*
X226747Y-203750D01*
X224748D01*
X223748Y-202750D01*
X58000Y-138000D02*
Y-132002D01*
X60999D01*
X61999Y-133002D01*
Y-135001D01*
X60999Y-136001D01*
X58000D01*
X63998Y-132002D02*
Y-138000D01*
Y-135001D01*
X67997D01*
Y-132002D01*
Y-138000D01*
X69996D02*
X71996D01*
X70996D01*
Y-132002D01*
X69996Y-133002D01*
D24*
X139300Y-134000D02*
G03*
X141700Y-134000I1200J0D01*
G01*
X153500Y-137700D02*
Y-134000D01*
X127500Y-211000D02*
Y-207300D01*
Y-211000D02*
X153500D01*
Y-207300D01*
X141700Y-134000D02*
X153500D01*
X139300D02*
X141700D01*
X127500D02*
X139300D01*
X127500Y-137300D02*
Y-134000D01*
X222500Y-247000D02*
X248500D01*
X236700Y-207000D02*
X248500D01*
X234300D02*
X236700D01*
X225000D02*
X234300D01*
X224500Y-168500D02*
X250500D01*
X238700Y-128500D02*
X250500D01*
X236300D02*
X238700D01*
X227000D02*
X236300D01*
D25*
X234300Y-207000D02*
G03*
X236700Y-207000I1200J0D01*
G01*
X236300Y-128500D02*
G03*
X238700Y-128500I1200J0D01*
G01*
D26*
X278685Y-65173D02*
G03*
X278685Y-65173I-19685J0D01*
G01*
X381185D02*
G03*
X381185Y-65173I-19685J0D01*
G01*
X133685D02*
G03*
X133685Y-65173I-19685J0D01*
G01*
X181685D02*
G03*
X181685Y-65173I-19685J0D01*
G01*
X59158Y-251028D02*
Y-196870D01*
X78843D01*
Y-251370D02*
Y-196870D01*
X59500Y-251370D02*
X78843D01*
X59158Y-251028D02*
X59500Y-251370D01*
X264158Y-176028D02*
Y-121870D01*
X283842D01*
Y-176370D02*
Y-121870D01*
X264500Y-176370D02*
X283842D01*
X264158Y-176028D02*
X264500Y-176370D01*
X264158Y-252028D02*
Y-197870D01*
X283842D01*
Y-252370D02*
Y-197870D01*
X264500Y-252370D02*
X283842D01*
X264158Y-252028D02*
X264500Y-252370D01*
X114342Y-100157D02*
X168500D01*
Y-119843D02*
Y-100157D01*
X114000Y-119843D02*
X168500D01*
X114000D02*
Y-100500D01*
X114342Y-100157D01*
X300472Y-132658D02*
X354630D01*
Y-152342D02*
Y-132658D01*
X300130Y-152342D02*
X354630D01*
X300130D02*
Y-133000D01*
X300472Y-132658D01*
X263500Y-75846D02*
X267500D01*
X265500Y-77846D02*
Y-73847D01*
X366000Y-75846D02*
X370000D01*
X368000Y-77846D02*
Y-73847D01*
X118500Y-75846D02*
X122500D01*
X120500Y-77846D02*
Y-73847D01*
X166500Y-75846D02*
X170500D01*
X168500Y-77846D02*
Y-73847D01*
M02*
